<?xml version="1.0" encoding="UTF-8"?>
<svg version="1.1" xmlns="http://www.w3.org/2000/svg" width="1184" height="864">
<path d="M0 0 C390.72 0 781.44 0 1184 0 C1184 285.12 1184 570.24 1184 864 C793.28 864 402.56 864 0 864 C0 578.88 0 293.76 0 0 Z " fill="#000000" transform="translate(0,0)"/>
<path d="M0 0 C121.84415313 0 121.84415313 0 143.1640625 20.88671875 C155.50672905 33.82874453 159.39582353 52.06344099 159.21484375 69.4375 C158.3311337 84.09101943 153.71588633 97.23475399 145 109 C143.88625 110.5159375 143.88625 110.5159375 142.75 112.0625 C142.1725 112.701875 141.595 113.34125 141 114 C140.34 114 139.68 114 139 114 C138.67 114.99 138.34 115.98 138 117 C136.04952383 118.59744881 134.14147442 120.02780252 132.0625 121.4375 C131.48072998 121.83638428 130.89895996 122.23526855 130.29956055 122.64624023 C125.27375411 125.9979242 119.22067633 130 113 130 C116.52397902 136.27375053 120.40015887 141.91021272 124.96484375 147.46875 C134 158.70633397 134 158.70633397 134 162 C134.66 162 135.32 162 136 162 C137.5078125 163.6796875 137.5078125 163.6796875 139.125 165.875 C139.66382813 166.59429687 140.20265625 167.31359375 140.7578125 168.0546875 C142 170 142 170 142 172 C142.66 172 143.32 172 144 172 C145.234375 173.5546875 145.234375 173.5546875 146.75 175.875 C150.21616034 180.98036533 153.93850883 185.83548305 157.75 190.6875 C162.35883319 196.57608424 166.92712498 202.48858033 171.375 208.5 C171.84518555 209.12865967 172.31537109 209.75731934 172.79980469 210.4050293 C176 214.76247064 176 214.76247064 176 217 C169.70188412 217.22867356 163.40484122 217.3859904 157.10351562 217.49438477 C154.96150721 217.53957687 152.81977541 217.60094654 150.67871094 217.67895508 C147.59500985 217.78847371 144.51498181 217.83923294 141.4296875 217.87890625 C140.47633514 217.92535782 139.52298279 217.97180939 138.54074097 218.01966858 C135.75584349 218.02177092 133.63342263 217.91677539 131 217 C128.36951369 214.29455329 126.744008 211.31967053 125 208 C124.19739629 206.86755313 123.36847994 205.75303457 122.5078125 204.6640625 C118.60608741 199.68776395 114.74862477 194.70188136 111.0625 189.5625 C108.0408508 185.36981005 104.89884655 181.29718416 101.6875 177.25 C96.84558925 171.14315373 92.21360974 164.90286045 87.62890625 158.6015625 C85.22133765 155.29346642 82.77412159 152.01808767 80.3125 148.75 C76.83074955 144.12415748 73.41564152 139.45453465 70.01953125 134.765625 C67.93301882 131.90827335 65.81517194 129.07681813 63.6875 126.25 C60.16132358 121.56067511 56.66295984 116.85204432 53.1875 112.125 C52.73141357 111.50657227 52.27532715 110.88814453 51.80541992 110.25097656 C51.36818604 109.65510742 50.93095215 109.05923828 50.48046875 108.4453125 C50.09785889 107.92469238 49.71524902 107.40407227 49.32104492 106.86767578 C47.49194261 104.28171521 45.74934498 101.64033728 44 99 C44.60419769 98.99191315 45.20839539 98.98382629 45.8309021 98.97549438 C52.15846673 98.88897819 58.4857349 98.78945801 64.81298828 98.68261719 C67.16970819 98.64449615 69.52648294 98.60961484 71.88330078 98.578125 C75.28437816 98.53210619 78.68508343 98.47417411 82.0859375 98.4140625 C83.12801361 98.40251129 84.17008972 98.39096008 85.2437439 98.37905884 C96.87421313 98.14803024 105.82166593 96.62340051 114.56640625 88.5546875 C121.06369563 81.45615641 121.7647693 73.28761995 121.40234375 64.1171875 C120.86250926 56.91603079 118.87739122 50.15637783 113.9453125 44.74609375 C93.70475549 27.97234495 57.82911978 35.36542315 37 35 C37 95.06 37 155.12 37 217 C25.9647031 222.51764845 12.33783702 218 0 218 C0 146.06 0 74.12 0 0 Z " fill="#F8F7F8" transform="translate(453,324)"/>
<path d="M0 0 C10.48414681 -0.09306392 20.96819384 -0.16394859 31.45267105 -0.20724869 C36.32211241 -0.22804042 41.19126922 -0.2562026 46.06054688 -0.30175781 C50.76790884 -0.3455179 55.4749987 -0.36920023 60.18254852 -0.37950897 C61.97013374 -0.3868466 63.75770565 -0.4011739 65.54517365 -0.42292023 C83.44179538 -0.63180603 97.89384179 3.58072907 112 15 C113.03125 15.78375 114.0625 16.5675 115.125 17.375 C125.84981604 27.16722334 132.0547679 41.53943147 133.3515625 55.890625 C133.6915092 71.65179 131.216889 86.8317112 121.62109375 99.60546875 C119.99764907 102.00347258 118.97087948 104.2805714 118 107 C118.56847656 107.51046875 119.13695312 108.0209375 119.72265625 108.546875 C131.77625389 119.89617228 137.69453165 133.07022896 138.23828125 149.51171875 C138.61959262 170.71981246 138.61959262 170.71981246 134 180 C133.50242187 181.07121094 133.00484375 182.14242187 132.4921875 183.24609375 C124.32973035 199.66592035 111.1655598 209.89943414 94 216 C85.16092673 217.70265145 76.17333299 218.24678028 67.1875 218.4375 C66.32181396 218.47182129 65.45612793 218.50614258 64.56420898 218.54150391 C62.26618609 218.55747666 60.2372246 218.5276195 58 218 C56.11328125 215.59765625 56.11328125 215.59765625 55 213 C54.01 212.34 53.02 211.68 52 211 C51.01933416 209.31415936 50.04323276 207.62512064 49.11083984 205.91210938 C47.30275028 202.79981103 45.05897982 200.05397628 42.8125 197.25 C38.1329722 191.3989166 38.1329722 191.3989166 37 188 C36.34 188 35.68 188 35 188 C32 184.53846154 32 184.53846154 32 182 C32.61085953 181.99413376 33.22171906 181.98826752 33.85108948 181.98222351 C40.22695463 181.91813423 46.60232228 181.83367454 52.9777832 181.73754883 C55.35499499 181.70435885 57.73228446 181.67630859 60.10961914 181.65356445 C63.53305058 181.61991014 66.95577396 181.56758699 70.37890625 181.51171875 C71.9652462 181.50213387 71.9652462 181.50213387 73.58363342 181.49235535 C81.64439119 181.33288058 87.2711342 179.61407941 94 175 C94.66 174.01 95.32 173.02 96 172 C96.66 172 97.32 172 98 172 C102.63824822 161.06698635 103.36158738 152.5954323 99.265625 141.4453125 C97.87232618 138.75332157 96.16069948 137.09714949 94 135 C94 134.34 94 133.68 94 133 C93.113125 132.731875 92.22625 132.46375 91.3125 132.1875 C88 131 88 131 85.4375 129.4375 C80.96109921 126.79757133 76.38797218 126.86198833 71.28198242 126.79467773 C70.30065338 126.77982834 70.30065338 126.77982834 69.29949951 126.76467896 C67.15152522 126.73326086 65.00352887 126.70838508 62.85546875 126.68359375 C61.36045275 126.66300718 59.86544235 126.64201027 58.37043762 126.62062073 C54.44634552 126.56557585 50.52220242 126.51608947 46.59802246 126.46777344 C42.58939099 126.41742956 38.58083306 126.36181093 34.57226562 126.30664062 C26.71490603 126.19927431 18.85748469 126.09778207 11 126 C11.77988281 125.23300781 12.55976562 124.46601563 13.36328125 123.67578125 C16.03242156 121.07122886 16.03242156 121.07122886 18.1875 118.1875 C19.0846875 117.1046875 19.0846875 117.1046875 20 116 C20.66 116 21.32 116 22 116 C22.40605469 114.92492187 22.40605469 114.92492187 22.8203125 113.828125 C24.38298386 110.08185326 26.37237383 106.63946412 28.3671875 103.109375 C30.4433031 99.15581515 32.22590927 95.09614568 34 91 C35.55726807 90.970271 35.55726807 90.970271 37.14599609 90.93994141 C41.04140241 90.86318772 44.93646864 90.77458527 48.83154297 90.68261719 C50.50920846 90.64461286 52.18694754 90.60971328 53.86474609 90.578125 C71.20409189 90.42415696 71.20409189 90.42415696 87 84 C87.66 84 88.32 84 89 84 C89.2475 83.46375 89.495 82.9275 89.75 82.375 C91 80 91 80 93.046875 77.3984375 C95.50259343 73.12548744 95.61850994 70.0820657 95.5 65.25 C95.48501465 64.45231201 95.4700293 63.65462402 95.45458984 62.83276367 C95.23117845 56.70018322 94.77799545 51.06309365 91 46 C82.8335629 38.55789037 74.73958196 35.5647915 63.91015625 35.48828125 C62.96563095 35.47033005 62.02110565 35.45237885 61.04795837 35.43388367 C58.05285 35.38001844 55.05789881 35.34596142 52.0625 35.3125 C50.0227647 35.27930593 47.98305008 35.24481435 45.94335938 35.20898438 C40.96235343 35.12430565 35.98139217 35.05738128 31 35 C30.53311768 34.11739502 30.06623535 33.23479004 29.58520508 32.32543945 C28.65550903 30.58073364 28.65550903 30.58073364 27.70703125 28.80078125 C27.09577393 27.65005127 26.4845166 26.49932129 25.85473633 25.3137207 C19.75199387 14.41040053 11.03580297 6.75781025 0 1 C0 0.67 0 0.34 0 0 Z " fill="#F58EF8" transform="translate(586,324)"/>
<path d="M0 0 C9.46003513 6.83094348 18.38821578 14.78661902 23.12280273 25.68066406 C23.47632309 26.48989319 23.82984344 27.29912231 24.19407654 28.13287354 C24.46003128 28.74902527 24.72598602 29.365177 25 30 C26.23975586 29.99887207 27.47951172 29.99774414 28.75683594 29.99658203 C33.40914312 30.00028619 38.06043327 30.04337951 42.71240234 30.09765625 C44.71591589 30.11569141 46.71955252 30.1234077 48.72314453 30.12011719 C60.51855667 30.10835119 69.98293327 30.11522571 80 37 C80.62551758 37.37817871 81.25103516 37.75635742 81.89550781 38.14599609 C86.80829359 41.52633957 88.76203162 46.38468486 90 52 C91.08434604 60.08557501 91.6806662 68.621419 87.1875 75.75 C80.96476385 83.04344987 73.36810327 86.18740608 64 87 C61.11290559 87.11714439 58.23282902 87.11764023 55.34375 87.09765625 C54.55601196 87.0962413 53.76827393 87.09482635 52.95666504 87.09336853 C50.47106936 87.08782612 47.98556789 87.07528485 45.5 87.0625 C43.80208465 87.05747754 42.10416786 87.05291595 40.40625 87.04882812 C36.27079771 87.03787564 32.13541476 87.02065166 28 87 C27.81824219 87.58297852 27.63648438 88.16595703 27.44921875 88.76660156 C25.97891245 93.3490562 24.38684545 97.5481575 22 101.75 C21.505 102.63171875 21.01 103.5134375 20.5 104.421875 C20.005 105.27265625 19.51 106.1234375 19 107 C18.484375 107.93328125 17.96875 108.8665625 17.4375 109.828125 C16.963125 110.54484375 16.48875 111.2615625 16 112 C15.34 112 14.68 112 14 112 C13.79375 112.556875 13.5875 113.11375 13.375 113.6875 C11.45915961 116.90959519 8.91342585 118.64504586 6 121 C7.21030128 121.00879936 7.21030128 121.00879936 8.4450531 121.01777649 C16.08013244 121.0758812 23.71489204 121.14805832 31.34968472 121.23571491 C35.27403616 121.28028364 39.19828701 121.31956865 43.12280273 121.34643555 C46.91611028 121.37260435 50.70902791 121.41310031 54.50209236 121.46318626 C55.94317811 121.47976385 57.38433116 121.49133449 58.82549858 121.49761391 C66.63910261 121.53507708 73.76564593 121.75513001 81 125 C81.65153549 125.28962112 82.30307098 125.57924225 82.97434998 125.87763977 C89.47500966 128.95070732 93.38004584 134.78785467 95.875 141.375 C98.23107325 149.52308665 97.42909596 156.35047825 94 164 C93.70480469 164.67160156 93.40960937 165.34320313 93.10546875 166.03515625 C90.22288708 171.15861413 83.72600848 175.84484537 78.17071533 177.56712341 C75.71370179 178.05709261 73.46186159 178.11985319 70.95605469 178.11352539 C69.95531921 178.11344986 68.95458374 178.11337433 67.92352295 178.11329651 C66.85047913 178.10813522 65.7774353 178.10297394 64.671875 178.09765625 C63.01566132 178.09553383 63.01566132 178.09553383 61.32598877 178.09336853 C57.80063158 178.08777258 54.27533798 178.07522079 50.75 178.0625 C48.35937592 178.05748448 45.96875084 178.05292166 43.578125 178.04882812 C37.71872832 178.03780447 31.8593687 178.02107033 26 178 C26.495 178.61875 26.99 179.2375 27.5 179.875 C29 182 29 182 29 184 C29.66 184 30.32 184 31 184 C32.26513672 185.35766602 32.26513672 185.35766602 33.6796875 187.25390625 C34.19660156 187.94419922 34.71351563 188.63449219 35.24609375 189.34570312 C36.05240234 190.44301758 36.05240234 190.44301758 36.875 191.5625 C37.40480469 192.26697266 37.93460938 192.97144531 38.48046875 193.69726562 C40.92625918 196.98967582 43.21893187 200.26341058 45.2109375 203.8515625 C47.09062251 207.15947978 49.28818582 209.36351399 52 212 C52 212.66 52 213.32 52 214 C64.00654777 213.42181583 76.00520067 212.78736811 88 212 C88 212.33 88 212.66 88 213 C79.67457568 214.64590922 71.4019507 215.331716 62.9375 215.75 C61.42047485 215.83495728 61.42047485 215.83495728 59.87280273 215.92163086 C58.91317627 215.96296143 57.9535498 216.00429199 56.96484375 216.046875 C55.67501587 216.10633301 55.67501587 216.10633301 54.35913086 216.16699219 C51.77862973 215.9843302 50.21098641 215.30467685 48 214 C48 212.68 48 211.36 48 210 C46.02 209.01 46.02 209.01 44 208 C44 207.34 44 206.68 44 206 C40.33478106 207.9290626 38.6672132 209.22929351 37 213 C35.89205078 211.40285156 35.89205078 211.40285156 34.76171875 209.7734375 C28.53414136 200.84541536 22.09020774 192.17466761 15.3125 183.65966797 C13.11440807 180.8801611 10.95538761 178.07220398 8.8125 175.25 C8.07644531 174.28578125 7.34039063 173.3215625 6.58203125 172.328125 C5 170 5 170 5 168 C4.34 168 3.68 168 3 168 C1.4921875 166.3203125 1.4921875 166.3203125 -0.125 164.125 C-0.93324219 163.04605469 -0.93324219 163.04605469 -1.7578125 161.9453125 C-3 160 -3 160 -3 158 C-3.66 158 -4.32 158 -5 158 C-6.3828716 156.19770801 -7.67896731 154.32871277 -8.9375 152.4375 C-12.93036274 146.49236736 -17.11412005 140.72198309 -21.45678711 135.02709961 C-23.69408183 132.03638491 -25.26128529 129.65832575 -26 126 C-25.11699219 125.6596875 -24.23398437 125.319375 -23.32421875 124.96875 C-5.87610716 117.92203683 6.1273152 107.23831039 14 90 C20.82305451 72.21132216 20.82884187 52.55245852 14.25 34.6875 C8.5316623 21.9015539 -0.25106615 11.23281211 -13 5 C-10.30490965 4.00181839 -9.2782959 3.88582732 -6.5625 5 C-3.56264101 6.17067668 -2.0455459 5.87015597 1 5 C0.67 3.35 0.34 1.7 0 0 Z " fill="#000002" transform="translate(592,328)"/>
<path d="M0 0 C9.46003513 6.83094348 18.38821578 14.78661902 23.12280273 25.68066406 C23.47632309 26.48989319 23.82984344 27.29912231 24.19407654 28.13287354 C24.46003128 28.74902527 24.72598602 29.365177 25 30 C26.23975586 29.99887207 27.47951172 29.99774414 28.75683594 29.99658203 C33.40914312 30.00028619 38.06043327 30.04337951 42.71240234 30.09765625 C44.71591589 30.11569141 46.71955252 30.1234077 48.72314453 30.12011719 C60.51855667 30.10835119 69.98293327 30.11522571 80 37 C80.62551758 37.37817871 81.25103516 37.75635742 81.89550781 38.14599609 C86.80829359 41.52633957 88.76203162 46.38468486 90 52 C91.08434604 60.08557501 91.6806662 68.621419 87.1875 75.75 C80.96476385 83.04344987 73.36810327 86.18740608 64 87 C61.11290559 87.11714439 58.23282902 87.11764023 55.34375 87.09765625 C54.55601196 87.0962413 53.76827393 87.09482635 52.95666504 87.09336853 C50.47106936 87.08782612 47.98556789 87.07528485 45.5 87.0625 C43.80208465 87.05747754 42.10416786 87.05291595 40.40625 87.04882812 C36.27079771 87.03787564 32.13541476 87.02065166 28 87 C27.81824219 87.58297852 27.63648438 88.16595703 27.44921875 88.76660156 C25.97891245 93.3490562 24.38684545 97.5481575 22 101.75 C21.505 102.63171875 21.01 103.5134375 20.5 104.421875 C20.005 105.27265625 19.51 106.1234375 19 107 C18.484375 107.93328125 17.96875 108.8665625 17.4375 109.828125 C16.963125 110.54484375 16.48875 111.2615625 16 112 C15.34 112 14.68 112 14 112 C13.79375 112.556875 13.5875 113.11375 13.375 113.6875 C11.45915961 116.90959519 8.91342585 118.64504586 6 121 C7.21030128 121.00879936 7.21030128 121.00879936 8.4450531 121.01777649 C16.08013244 121.0758812 23.71489204 121.14805832 31.34968472 121.23571491 C35.27403616 121.28028364 39.19828701 121.31956865 43.12280273 121.34643555 C46.91611028 121.37260435 50.70902791 121.41310031 54.50209236 121.46318626 C55.94317811 121.47976385 57.38433116 121.49133449 58.82549858 121.49761391 C69.8327058 121.55038916 78.71797994 122.81198663 88 129 C88.33 129.99 88.66 130.98 89 132 C85.59687262 130.94124926 82.98646769 129.99097846 80 128 C80 127.34 80 126.68 80 126 C79.22485046 125.98969254 78.44970093 125.97938507 77.65106201 125.96876526 C70.2966627 125.87022619 62.94233566 125.76763915 55.58805466 125.66066074 C51.8084037 125.60581899 48.02874469 125.55246744 44.24902344 125.50268555 C40.59201552 125.45446231 36.93508663 125.40211051 33.27817535 125.34705925 C31.89257054 125.32689454 30.50694431 125.30814388 29.12129974 125.29092598 C20.70486246 125.18523946 12.37742923 124.83159473 4 124 C3.75 119.2890625 3.75 119.2890625 6 116.6875 C6.66 116.130625 7.32 115.57375 8 115 C7.401875 115.226875 6.80375 115.45375 6.1875 115.6875 C5.465625 115.790625 4.74375 115.89375 4 116 C2.25 114.5625 2.25 114.5625 1 113 C0.5875 113.804375 0.175 114.60875 -0.25 115.4375 C-2 118 -2 118 -4 118.875 C-6 119 -6 119 -9 118 C-8.50371094 117.6596875 -8.00742187 117.319375 -7.49609375 116.96875 C6.49554158 106.98610316 14.47037738 92.61116183 18 76 C21.13214025 56.95490562 17.79449082 37.92834092 7.12109375 21.74609375 C1.71207923 14.7432628 -5.04282858 8.8901727 -13 5 C-10.30490965 4.00181839 -9.2782959 3.88582732 -6.5625 5 C-3.56264101 6.17067668 -2.0455459 5.87015597 1 5 C0.67 3.35 0.34 1.7 0 0 Z " fill="#000001" transform="translate(592,328)"/>
<path d="M0 0 C0.33 0 0.66 0 1 0 C2.29917594 18.93084945 2.29917594 18.93084945 -3.7421875 26.01171875 C-12.8010303 33.9891426 -22.07090867 35.17779294 -33.65625 35.09765625 C-34.44398804 35.0962413 -35.23172607 35.09482635 -36.04333496 35.09336853 C-38.52893064 35.08782612 -41.01443211 35.07528485 -43.5 35.0625 C-45.19791535 35.05747754 -46.89583214 35.05291595 -48.59375 35.04882812 C-52.72920229 35.03787564 -56.86458524 35.02065166 -61 35 C-61.18175781 35.58297852 -61.36351562 36.16595703 -61.55078125 36.76660156 C-63.02108755 41.3490562 -64.61315455 45.5481575 -67 49.75 C-67.495 50.63171875 -67.99 51.5134375 -68.5 52.421875 C-68.995 53.27265625 -69.49 54.1234375 -70 55 C-70.515625 55.93328125 -71.03125 56.8665625 -71.5625 57.828125 C-72.036875 58.54484375 -72.51125 59.2615625 -73 60 C-73.66 60 -74.32 60 -75 60 C-75.20625 60.556875 -75.4125 61.11375 -75.625 61.6875 C-77.54084039 64.90959519 -80.08657415 66.64504586 -83 69 C-81.78969872 69.00879936 -81.78969872 69.00879936 -80.5549469 69.01777649 C-72.91986756 69.0758812 -65.28510796 69.14805832 -57.65031528 69.23571491 C-53.72596384 69.28028364 -49.80171299 69.31956865 -45.87719727 69.34643555 C-42.08388972 69.37260435 -38.29097209 69.41310031 -34.49790764 69.46318626 C-33.05682189 69.47976385 -31.61566884 69.49133449 -30.17450142 69.49761391 C-19.1672942 69.55038916 -10.28202006 70.81198663 -1 77 C-0.67 77.99 -0.34 78.98 0 80 C-3.40312738 78.94124926 -6.01353231 77.99097846 -9 76 C-9 75.34 -9 74.68 -9 74 C-9.77514954 73.98969254 -10.55029907 73.97938507 -11.34893799 73.96876526 C-18.7033373 73.87022619 -26.05766434 73.76763915 -33.41194534 73.66066074 C-37.1915963 73.60581899 -40.97125531 73.55246744 -44.75097656 73.50268555 C-48.40798448 73.45446231 -52.06491337 73.40211051 -55.72182465 73.34705925 C-57.10742946 73.32689454 -58.49305569 73.30814388 -59.87870026 73.29092598 C-68.29513754 73.18523946 -76.62257077 72.83159473 -85 72 C-85.25 67.2890625 -85.25 67.2890625 -83 64.6875 C-82.34 64.130625 -81.68 63.57375 -81 63 C-81.8971875 63.3403125 -81.8971875 63.3403125 -82.8125 63.6875 C-83.8953125 63.8421875 -83.8953125 63.8421875 -85 64 C-86.75 62.5625 -86.75 62.5625 -88 61 C-88.4125 61.804375 -88.825 62.60875 -89.25 63.4375 C-91 66 -91 66 -93 66.875 C-95 67 -95 67 -98 66 C-97.50371094 65.6596875 -97.00742187 65.319375 -96.49609375 64.96875 C-81.428424 54.21838221 -73.5551607 38.55769188 -70.40625 20.6171875 C-69.95148577 16.56803672 -69.88910958 12.63101789 -69.9375 8.5625 C-69.94201172 7.83095703 -69.94652344 7.09941406 -69.95117188 6.34570312 C-69.96281852 4.56376581 -69.98074809 2.78187137 -70 1 C-69.34 1.33 -68.68 1.66 -68 2 C-66.64097504 10.87212522 -66.86612638 20.04534233 -67 29 C-66.34 29 -65.68 29 -65 29 C-65 27.02 -65 25.04 -65 23 C-64.67 23 -64.34 23 -64 23 C-63.87625 23.804375 -63.7525 24.60875 -63.625 25.4375 C-63.41875 26.283125 -63.2125 27.12875 -63 28 C-62.34 28.33 -61.68 28.66 -61 29 C-61 29.66 -61 30.32 -61 31 C-56.16607404 31.10057784 -51.33278652 31.17225269 -46.49804688 31.21972656 C-44.86121993 31.23956301 -43.22446105 31.26664112 -41.58789062 31.30175781 C-30.08640239 31.54196088 -20.01492192 30.36904681 -9 27 C-9 26.34 -9 25.68 -9 25 C-8.01 25 -7.02 25 -6 25 C-5.67 23.35 -5.34 21.7 -5 20 C-4.01 19.67 -3.02 19.34 -2 19 C-1.34 12.73 -0.68 6.46 0 0 Z " fill="#1A062F" transform="translate(681,380)"/>
<path d="M0 0 C10.48414681 -0.09306392 20.96819384 -0.16394859 31.45267105 -0.20724869 C36.32211241 -0.22804042 41.19126922 -0.2562026 46.06054688 -0.30175781 C50.76790884 -0.3455179 55.4749987 -0.36920023 60.18254852 -0.37950897 C61.97013374 -0.3868466 63.75770565 -0.4011739 65.54517365 -0.42292023 C83.44179538 -0.63180603 97.89384179 3.58072907 112 15 C113.03125 15.78375 114.0625 16.5675 115.125 17.375 C125.84981604 27.16722334 132.0547679 41.53943147 133.3515625 55.890625 C133.6915092 71.65179 131.216889 86.8317112 121.62109375 99.60546875 C119.99764907 102.00347258 118.97087948 104.2805714 118 107 C119.65 108.98 121.3 110.96 123 113 C120.75 113.75 120.75 113.75 118 114 C114.72378719 111.81585813 114.06818207 110.25909186 113.0625 106.4375 C113 103 113 103 114.3125 101.0625 C116 100 116 100 118 100 C118.495 98.515 118.495 98.515 119 97 C119.680625 96.46375 120.36125 95.9275 121.0625 95.375 C123.63781594 92.2181611 123.25574633 90.15990992 122.9453125 86.21875 C123.01030985 83.58171448 123.80310055 82.34427202 125 80 C126.71925645 74.16324893 127.46431936 68.62918773 127.75 62.5625 C127.79310303 61.70301758 127.83620605 60.84353516 127.88061523 59.95800781 C128.19832552 51.50334091 127.30723989 43.34040655 126 35 C124.35 34.34 122.7 33.68 121 33 C121 32.34 121 31.68 121 31 C120.34 31 119.68 31 119 31 C115.28251827 27.61734919 112.37239349 24.39026903 111.0625 19.5 C111.041875 18.675 111.02125 17.85 111 17 C109.68 17 108.36 17 107 17 C107 15.68 107 14.36 107 13 C106.01 13 105.02 13 104 13 C104 12.34 104 11.68 104 11 C103.38253906 10.87882812 102.76507812 10.75765625 102.12890625 10.6328125 C96.4000776 9.49925432 90.69647293 8.28630034 85 7 C85 6.34 85 5.68 85 5 C84.01 4.855625 83.02 4.71125 82 4.5625 C81.443125 4.48128906 80.88625 4.40007812 80.3125 4.31640625 C79.549375 4.21199219 78.78625 4.10757812 78 4 C76.95376465 3.8335498 75.9075293 3.66709961 74.82958984 3.49560547 C68.78559507 2.74714619 62.70294359 2.81346596 56.62196732 2.77020454 C54.3775684 2.75363686 52.13332645 2.73040233 49.88900757 2.70530701 C43.51413899 2.63490738 37.13921391 2.57413228 30.76416016 2.52319336 C26.85152988 2.49146714 22.9390951 2.45023287 19.02662277 2.40299797 C17.5378709 2.38696864 16.04907432 2.37465136 14.56026077 2.36609077 C12.48739837 2.35398316 10.41500087 2.32986149 8.34228516 2.30297852 C7.16284332 2.29267105 5.98340149 2.28236359 4.76821899 2.27174377 C2 2 2 2 0 0 Z " fill="#ECABF6" transform="translate(586,324)"/>
<path d="M0 0 C11.43572314 8.25755691 19.2267652 17.01022171 25 30 C39.19 30.33 53.38 30.66 68 31 C68 31.33 68 31.66 68 32 C53.15 32.33 38.3 32.66 23 33 C22.67 34.98 22.34 36.96 22 39 C21.51701367 40.63664797 20.99904325 42.26361502 20.4375 43.875 C20.16808594 44.65617187 19.89867187 45.43734375 19.62109375 46.2421875 C19.41613281 46.82226562 19.21117187 47.40234375 19 48 C17.0365663 45.05484945 16.47271081 43.25670545 15.6875 39.875 C14.2248701 34.32431953 12.10279351 29.80977446 9 25 C8.58105469 24.33355469 8.16210938 23.66710937 7.73046875 22.98046875 C2.50760144 15.34936291 -5.03200882 9.56754648 -13 5 C-10.30490965 4.00181839 -9.2782959 3.88582732 -6.5625 5 C-3.56264101 6.17067668 -2.0455459 5.87015597 1 5 C0.67 3.35 0.34 1.7 0 0 Z " fill="#391B62" transform="translate(592,328)"/>
<path d="M0 0 C4.70491803 2.40983607 4.70491803 2.40983607 6 5 C6.639375 5.28875 7.27875 5.5775 7.9375 5.875 C10.42001234 7.22909764 10.96871397 8.42178493 12 11 C12.99 11 13.98 11 15 11 C15.66 10.01 16.32 9.02 17 8 C20 11.75 20 11.75 20 14 C20.66 14 21.32 14 22 14 C23.26513672 15.35766602 23.26513672 15.35766602 24.6796875 17.25390625 C25.45505859 18.2893457 25.45505859 18.2893457 26.24609375 19.34570312 C27.05240234 20.44301758 27.05240234 20.44301758 27.875 21.5625 C28.40480469 22.26697266 28.93460938 22.97144531 29.48046875 23.69726562 C31.92625918 26.98967582 34.21893187 30.26341058 36.2109375 33.8515625 C38.09062251 37.15947978 40.28818582 39.36351399 43 42 C43 42.66 43 43.32 43 44 C55.00654777 43.42181583 67.00520067 42.78736811 79 42 C79 42.33 79 42.66 79 43 C70.67457568 44.64590922 62.4019507 45.331716 53.9375 45.75 C52.9261499 45.80663818 51.9147998 45.86327637 50.87280273 45.92163086 C49.43336304 45.98362671 49.43336304 45.98362671 47.96484375 46.046875 C47.1049585 46.08651367 46.24507324 46.12615234 45.35913086 46.16699219 C42.77862973 45.9843302 41.21098641 45.30467685 39 44 C39 42.68 39 41.36 39 40 C37.68 39.34 36.36 38.68 35 38 C35 37.34 35 36.68 35 36 C31.33478106 37.9290626 29.6672132 39.22929351 28 43 C27.26136719 41.93523438 26.52273438 40.87046875 25.76171875 39.7734375 C18.44078713 29.27779197 10.75998671 19.18493116 2.7578125 9.203125 C2.11585938 8.39359375 1.47390625 7.5840625 0.8125 6.75 C0.26207031 6.06421875 -0.28835938 5.3784375 -0.85546875 4.671875 C-2 3 -2 3 -2 1 C-1.34 0.67 -0.68 0.34 0 0 Z " fill="#280B53" transform="translate(601,498)"/>
<path d="M0 0 C0.33 0 0.66 0 1 0 C2.29917594 18.93084945 2.29917594 18.93084945 -3.7421875 26.01171875 C-12.8010303 33.9891426 -22.07090867 35.17779294 -33.65625 35.09765625 C-34.44398804 35.0962413 -35.23172607 35.09482635 -36.04333496 35.09336853 C-38.52893064 35.08782612 -41.01443211 35.07528485 -43.5 35.0625 C-45.19791535 35.05747754 -46.89583214 35.05291595 -48.59375 35.04882812 C-52.72920229 35.03787564 -56.86458524 35.02065166 -61 35 C-61.19118408 35.59675537 -61.38236816 36.19351074 -61.5793457 36.80834961 C-63.3265894 42.17196876 -65.36809303 47.00845229 -68 52 C-68.33 52 -68.66 52 -69 52 C-68.979375 51.195625 -68.95875 50.39125 -68.9375 49.5625 C-68.70366379 47.06645115 -68.70366379 47.06645115 -70 46 C-69.54287762 44.45797384 -69.08423653 42.91639786 -68.625 41.375 C-68.35300781 40.45847656 -68.08101562 39.54195313 -67.80078125 38.59765625 C-67.20008185 36.649046 -66.5243676 34.7233025 -65.8125 32.8125 C-64.8421736 29.45367786 -64.86088371 26.47790715 -65 23 C-64.67 23 -64.34 23 -64 23 C-63.87625 23.804375 -63.7525 24.60875 -63.625 25.4375 C-63.41875 26.283125 -63.2125 27.12875 -63 28 C-62.34 28.33 -61.68 28.66 -61 29 C-61 29.66 -61 30.32 -61 31 C-56.16607404 31.10057784 -51.33278652 31.17225269 -46.49804688 31.21972656 C-44.86121993 31.23956301 -43.22446105 31.26664112 -41.58789062 31.30175781 C-30.08640239 31.54196088 -20.01492192 30.36904681 -9 27 C-9 26.34 -9 25.68 -9 25 C-8.01 25 -7.02 25 -6 25 C-5.67 23.35 -5.34 21.7 -5 20 C-4.01 19.67 -3.02 19.34 -2 19 C-1.34 12.73 -0.68 6.46 0 0 Z " fill="#01011D" transform="translate(681,380)"/>
<path d="M0 0 C9.1467329 8.07064667 13.6592027 19.07396086 15 31 C16.59150532 60.26677273 16.59150532 60.26677273 8 71 C7.94583259 68.27056463 7.90624775 65.54221436 7.875 62.8125 C7.85824219 62.04357422 7.84148438 61.27464844 7.82421875 60.48242188 C7.81777344 59.73154297 7.81132813 58.98066406 7.8046875 58.20703125 C7.79421387 57.5210083 7.78374023 56.83498535 7.77294922 56.12817383 C8 54 8 54 9 51.62304688 C10.18124777 48.52457861 10.22791932 46.13381087 10.1953125 42.82421875 C10.18886719 41.66728516 10.18242188 40.51035156 10.17578125 39.31835938 C10.15902344 38.12017578 10.14226563 36.92199219 10.125 35.6875 C10.11146484 33.8612207 10.11146484 33.8612207 10.09765625 31.99804688 C10.07413037 28.99849726 10.04125653 25.99934956 10 23 C9.34 22.67 8.68 22.34 8 22 C5.45841888 18.3340021 4.12933998 14.69929292 2.875 10.4375 C2.54242187 9.32246094 2.20984375 8.20742188 1.8671875 7.05859375 C1.20198235 4.71239721 0.56812548 2.37105431 0 0 Z " fill="#DEABEC" transform="translate(709,437)"/>
<path d="M0 0 C0 4.29 0 8.58 0 13 C1.32 13.33 2.64 13.66 4 14 C6.52230126 16.71632444 7.68226296 19.5738837 9 23 C9.66 23.99 10.32 24.98 11 26 C11 26.99 11 27.98 11 29 C12.32 29.66 13.64 30.32 15 31 C15 32.65 15 34.3 15 36 C15.5775 36.020625 16.155 36.04125 16.75 36.0625 C20.48181404 37.61742252 21.32198732 40.39538016 23 44 C22.67 44.99 22.34 45.98 22 47 C21.01 46.505 21.01 46.505 20 46 C20 45.34 20 44.68 20 44 C19.34 44 18.68 44 18 44 C16.4921875 42.3203125 16.4921875 42.3203125 14.875 40.125 C14.33617187 39.40570313 13.79734375 38.68640625 13.2421875 37.9453125 C12 36 12 36 12 34 C11.34 34 10.68 34 10 34 C8.6171284 32.19770801 7.32103269 30.32871277 6.0625 28.4375 C2.06963726 22.49236736 -2.11412005 16.72198309 -6.45678711 11.02709961 C-8.69408183 8.03638491 -10.26128529 5.65832575 -11 2 C-4.5 -1.125 -4.5 -1.125 0 0 Z " fill="#160B2D" transform="translate(577,452)"/>
<path d="M0 0 C1.76163242 -0.00067541 3.52326475 -0.00164741 5.28489685 -0.00289917 C8.94653221 -0.00436149 12.60814293 -0.00226691 16.26977539 0.00244141 C20.95693419 0.00817606 25.64403618 0.00482697 30.33119297 -0.00113106 C33.95572844 -0.00474407 37.58025042 -0.00359532 41.2047863 -0.00100327 C42.9339187 -0.00033802 44.66305235 -0.00114833 46.3921833 -0.00348282 C48.80128364 -0.00602567 51.21029133 -0.00214742 53.61938477 0.00341797 C54.32747284 0.00139374 55.03556091 -0.00063049 55.7651062 -0.00271606 C59.38637757 0.01276099 62.83979715 0.03380201 66.30859375 1.1328125 C67.29859375 2.6178125 67.29859375 2.6178125 68.30859375 4.1328125 C15.83859375 3.6378125 15.83859375 3.6378125 -37.69140625 3.1328125 C-37.69140625 2.8028125 -37.69140625 2.4728125 -37.69140625 2.1328125 C-25.42374294 -0.56518347 -12.49671657 -0.01707929 0 0 Z " fill="#362E4C" transform="translate(490.69140625,320.8671875)"/>
<path d="M0 0 C5.22209889 4.62357753 6.72457694 11.23213457 7.39453125 17.96484375 C7.82330461 28.40941782 6.1132712 35.55767051 -0.75 43.5625 C-1.82255636 44.71842733 -2.9020701 45.8681453 -4 47 C-4.66 46.67 -5.32 46.34 -6 46 C-5.690625 45.443125 -5.38125 44.88625 -5.0625 44.3125 C-3.92748078 41.84216405 -3.49667307 39.66961773 -3 37 C-2.67 35.989375 -2.34 34.97875 -2 33.9375 C1.09794731 23.11780341 0.1114743 11.14743001 0 0 Z " fill="#06031E" transform="translate(568,370)"/>
<path d="M0 0 C0.66 0.99 1.32 1.98 2 3 C-5.42368127 4.78300606 -12.51369007 5.33134237 -20.1328125 5.4140625 C-21.80958572 5.44311172 -21.80958572 5.44311172 -23.52023315 5.4727478 C-27.05508028 5.53204289 -30.58996087 5.57872733 -34.125 5.625 C-36.53647174 5.66322591 -38.9479305 5.70228025 -41.359375 5.7421875 C-47.23946724 5.83770268 -53.11963908 5.92289342 -59 6 C-59 5.01 -59 4.02 -59 3 C-55.64002264 1.88000755 -52.95896668 1.80859515 -49.41796875 1.71875 C-48.44202507 1.69113586 -48.44202507 1.69113586 -47.44636536 1.66296387 C-45.36016742 1.60433841 -43.27388151 1.55164669 -41.1875 1.5 C-32.14098807 1.26961162 -23.12880692 0.93870931 -14.10375977 0.22558594 C-3.50292178 -0.54489894 -3.50292178 -0.54489894 0 0 Z " fill="#06032C" transform="translate(555,418)"/>
<path d="M0 0 C0.99 0.66 1.98 1.32 3 2 C3 2.66 3 3.32 3 4 C3.86625 4.0309375 3.86625 4.0309375 4.75 4.0625 C7.77879215 5.32449673 8.46293325 7.32922706 9.91796875 10.15234375 C11.50488372 12.86212996 13.76135356 14.82353819 16 17 C16 17.66 16 18.32 16 19 C28.00654777 18.42181583 40.00520067 17.78736811 52 17 C52 17.33 52 17.66 52 18 C43.67457568 19.64590922 35.4019507 20.331716 26.9375 20.75 C25.9261499 20.80663818 24.9147998 20.86327637 23.87280273 20.92163086 C22.91317627 20.96296143 21.9535498 21.00429199 20.96484375 21.046875 C20.1049585 21.08651367 19.24507324 21.12615234 18.35913086 21.16699219 C15.77862973 20.9843302 14.21098641 20.30467685 12 19 C12 17.68 12 16.36 12 15 C10.68 14.34 9.36 13.68 8 13 C8 12.34 8 11.68 8 11 C4.33478106 12.9290626 2.6672132 14.22929351 1 18 C-0.03612271 16.59447701 -1.05344925 15.17508306 -2.0625 13.75 C-2.63097656 12.96109375 -3.19945312 12.1721875 -3.78515625 11.359375 C-5 9 -5 9 -4.68359375 6.703125 C-4.45800781 6.14109375 -4.23242188 5.5790625 -4 5 C-3.34 5 -2.68 5 -2 5 C-2.33 4.01 -2.66 3.02 -3 2 C-2.01 2 -1.02 2 0 2 C0 1.34 0 0.68 0 0 Z " fill="#0C0815" transform="translate(628,523)"/>
<path d="M0 0 C0.66 0 1.32 0 2 0 C-0.39025638 10.35777765 -9.35418143 18.3476984 -17.96484375 23.91796875 C-24.8838304 28.06593973 -30.74134207 31.39326943 -39 31 C-38 28 -38 28 -36.2578125 27.05078125 C-35.20207031 26.68533203 -35.20207031 26.68533203 -34.125 26.3125 C-33.42632813 26.06113281 -32.72765625 25.80976562 -32.0078125 25.55078125 C-30 25 -30 25 -27 25 C-27 24.34 -27 23.68 -27 23 C-24.09399739 21.74335022 -22.20395416 21 -19 21 C-18.7525 20.195625 -18.505 19.39125 -18.25 18.5625 C-17 16 -17 16 -14.875 15.1875 C-14.25625 15.125625 -13.6375 15.06375 -13 15 C-13 14.34 -13 13.68 -13 13 C-11.68 12.67 -10.36 12.34 -9 12 C-8.979375 11.278125 -8.95875 10.55625 -8.9375 9.8125 C-7.70548338 6.11645015 -5.80577451 5.1339606 -2.59375 3.11328125 C-0.83938228 2.07639069 -0.83938228 2.07639069 0 0 Z " fill="#ECB9F0" transform="translate(715,508)"/>
<path d="M0 0 C0.495 1.485 0.495 1.485 1 3 C1.66 3 2.32 3 3 3 C3 3.66 3 4.32 3 5 C2.44843011 4.85932413 1.89686022 4.71864826 1.32857609 4.57370949 C-4.00980057 3.28836212 -8.97712015 2.69747966 -14.45727539 2.68115234 C-15.24862885 2.67110672 -16.0399823 2.6610611 -16.85531616 2.65071106 C-19.43608969 2.62015147 -22.01676085 2.60292071 -24.59765625 2.5859375 C-26.40084192 2.56720387 -28.20401903 2.54762886 -30.00718689 2.5272522 C-34.72690762 2.47615673 -39.4466567 2.43641084 -44.16650391 2.39910889 C-48.99323408 2.35892683 -53.81984862 2.30789962 -58.64648438 2.2578125 C-68.09757475 2.16132101 -77.54873077 2.07683142 -87 2 C-86.67 1.34 -86.34 0.68 -86 0 C-75.08237771 -0.15365776 -64.1646963 -0.30183954 -53.24690437 -0.4429636 C-48.17774501 -0.5086614 -43.10862593 -0.57626991 -38.03955078 -0.64819336 C-33.15076623 -0.71748928 -28.26193964 -0.78183377 -23.37304306 -0.84269524 C-21.5046437 -0.86683478 -19.63626681 -0.89278093 -17.76791763 -0.92053413 C-15.15797695 -0.95899942 -12.54803138 -0.99113268 -9.93798828 -1.02172852 C-9.1597168 -1.03467453 -8.38144531 -1.04762054 -7.57958984 -1.06095886 C-2.22810432 -1.11405216 -2.22810432 -1.11405216 0 0 Z " fill="#2D136D" transform="translate(674,322)"/>
<path d="M0 0 C0.66 0.33 1.32 0.66 2 1 C0.4198632 3.15473199 -1.10646634 5.10646634 -3 7 C-3.309375 7.969375 -3.61875 8.93875 -3.9375 9.9375 C-5 13 -5 13 -8 16 C5.86 16.33 19.72 16.66 34 17 C34 17.33 34 17.66 34 18 C19.26702299 19.09713659 4.7329751 19.56258827 -10 18 C-10.25 13.2890625 -10.25 13.2890625 -8 10.6875 C-7.01 9.8521875 -7.01 9.8521875 -6 9 C-6.8971875 9.3403125 -6.8971875 9.3403125 -7.8125 9.6875 C-8.534375 9.790625 -9.25625 9.89375 -10 10 C-11.75 8.5625 -11.75 8.5625 -13 7 C-13.4125 7.804375 -13.825 8.60875 -14.25 9.4375 C-16 12 -16 12 -18 12.875 C-20 13 -20 13 -23 12 C-22.46890625 11.61328125 -21.9378125 11.2265625 -21.390625 10.828125 C-16.82951217 7.47265013 -16.82951217 7.47265013 -12.75 3.5625 C-11.88375 2.7890625 -11.88375 2.7890625 -11 2 C-8.75 2.25 -8.75 2.25 -7 3 C-7 3.66 -7 4.32 -7 5 C-6.01 5 -5.02 5 -4 5 C-3.896875 4.360625 -3.79375 3.72125 -3.6875 3.0625 C-3.460625 2.381875 -3.23375 1.70125 -3 1 C-2.01 0.67 -1.02 0.34 0 0 Z " fill="#090219" transform="translate(606,434)"/>
<path d="M0 0 C4.70491803 2.40983607 4.70491803 2.40983607 6 5 C6.639375 5.28875 7.27875 5.5775 7.9375 5.875 C10.42001234 7.22909764 10.96871397 8.42178493 12 11 C12.99 11 13.98 11 15 11 C15.66 10.01 16.32 9.02 17 8 C19.5164511 10.62130323 19.99237252 11.7864305 20.125 15.5 C20.08375 16.655 20.0425 17.81 20 19 C20.42854995 21.31036915 20.42854995 21.31036915 21 23 C19.62437146 21.71034824 18.29233607 20.37310707 17 19 C17 18.34 17 17.68 17 17 C15.41445313 17.40798828 15.41445313 17.40798828 13.796875 17.82421875 C10 18 10 18 7.453125 15.83203125 C6.72609375 14.83558594 5.9990625 13.83914063 5.25 12.8125 C4.51265625 11.82894531 3.7753125 10.84539062 3.015625 9.83203125 C2.35046875 8.89746094 1.6853125 7.96289062 1 7 C0.41734375 6.26136719 -0.1653125 5.52273438 -0.765625 4.76171875 C-2 3 -2 3 -2 1 C-1.34 0.67 -0.68 0.34 0 0 Z " fill="#0D0334" transform="translate(601,498)"/>
<path d="M0 0 C1.27609323 0.90933009 2.54565553 1.82782853 3.8125 2.75 C4.87404297 3.51570313 4.87404297 3.51570313 5.95703125 4.296875 C8.05020821 6.04185617 9.52623633 7.7126444 11 10 C11 10.66 11 11.32 11 12 C10.34 12 9.68 12 9 12 C9 12.99 9 13.98 9 15 C9.99 15.33 10.98 15.66 12 16 C12 16.66 12 17.32 12 18 C13.32 17.67 14.64 17.34 16 17 C16.66 17.99 17.32 18.98 18 20 C17.67 20.66 17.34 21.32 17 22 C16.34 22 15.68 22 15 22 C14.67 22.99 14.34 23.98 14 25 C9.43410853 23.55813953 9.43410853 23.55813953 7.6875 21.3125 C6.7521829 18.16643337 6.87458635 15.26075491 7 12 C6.34 12 5.68 12 5 12 C4.67 11.67 4.34 11.34 4 11 C3.67 11.66 3.34 12.32 3 13 C2.01 12.34 1.02 11.68 0 11 C0 10.34 0 9.68 0 9 C-0.99 8.67 -1.98 8.34 -3 8 C-2.319375 7.4225 -1.63875 6.845 -0.9375 6.25 C0.0215625 5.13625 0.0215625 5.13625 1 4 C0.67893704 1.8813003 0.67893704 1.8813003 0 0 Z " fill="#150248" transform="translate(592,328)"/>
<path d="M0 0 C0.66 0 1.32 0 2 0 C1.96744792 2.01822917 1.93489583 4.03645833 1.90234375 6.0546875 C1.87350758 8.08185404 1.87350758 8.08185404 3 10 C3.09505069 11.43634143 3.13072867 12.87692475 3.1328125 14.31640625 C3.13410156 15.16267578 3.13539063 16.00894531 3.13671875 16.88085938 C3.13285156 17.76580078 3.12898437 18.65074219 3.125 19.5625 C3.12886719 20.45130859 3.13273438 21.34011719 3.13671875 22.25585938 C3.13542969 23.10083984 3.13414062 23.94582031 3.1328125 24.81640625 C3.13168457 25.59443604 3.13055664 26.37246582 3.12939453 27.17407227 C3 29 3 29 2 30 C1.84141197 31.55944897 1.72321421 33.1230879 1.625 34.6875 C1.24294624 39.05293396 0.29889164 42.20183121 -2 46 C-2.33 46 -2.66 46 -3 46 C-3.05416741 43.27056463 -3.09375225 40.54221436 -3.125 37.8125 C-3.14175781 37.04357422 -3.15851562 36.27464844 -3.17578125 35.48242188 C-3.18222656 34.73154297 -3.18867187 33.98066406 -3.1953125 33.20703125 C-3.20578613 32.5210083 -3.21625977 31.83498535 -3.22705078 31.12817383 C-3 29 -3 29 -2.01367188 26.59570312 C-0.87582768 23.68203272 -0.68601794 21.38089236 -0.5859375 18.26171875 C-0.54726563 17.19501953 -0.50859375 16.12832031 -0.46875 15.02929688 C-0.4378125 13.92650391 -0.406875 12.82371094 -0.375 11.6875 C-0.33632813 10.56537109 -0.29765625 9.44324219 -0.2578125 8.28710938 C-0.16377989 5.52490148 -0.07812659 2.762696 0 0 Z " fill="#F6A8F6" transform="translate(720,462)"/>
<path d="M0 0 C1.69092219 1.30243529 3.36009242 2.63388921 5 4 C-2.4930534 4.0506268 -9.98606284 4.08570263 -17.47924805 4.10986328 C-20.02939502 4.11993328 -22.57953042 4.13359004 -25.12963867 4.15087891 C-28.7908819 4.17508312 -32.45197274 4.18647305 -36.11328125 4.1953125 C-37.82902092 4.21079636 -37.82902092 4.21079636 -39.579422 4.22659302 C-41.17073189 4.22681961 -41.17073189 4.22681961 -42.79418945 4.22705078 C-43.72906693 4.231492 -44.6639444 4.23593323 -45.62715149 4.24050903 C-48 4 -48 4 -51 2 C-42.30578837 1.10828599 -33.73479154 0.90369579 -25 1 C-22.62504563 1.02550971 -20.25003776 1.0465423 -17.875 1.0625 C-16.84117187 1.07410156 -15.80734375 1.08570313 -14.7421875 1.09765625 C-9.73722972 0.91941701 -5.05270291 -1.02559519 0 0 Z " fill="#F6A5FA" transform="translate(664,446)"/>
<path d="M0 0 C13.53 0 27.06 0 41 0 C39.02 0.99 39.02 0.99 37 2 C36.67 2.33 36.34 2.66 36 3 C33.5889398 3.1599386 31.2031847 3.25936093 28.7890625 3.31640625 C28.06512299 3.33718735 27.34118347 3.35796844 26.5953064 3.37937927 C24.27197066 3.44494406 21.94851682 3.50374054 19.625 3.5625 C18.06509212 3.605687 16.50519602 3.64930135 14.9453125 3.69335938 C3.89569924 4 3.89569924 4 0 4 C0 2.68 0 1.36 0 0 Z " fill="#F69CFC" transform="translate(620,415)"/>
<path d="M0 0 C2 2 2 2 2.375 5.6875 C2.27211611 10.41158539 0.55933973 13.0857157 -2 17 C-2.6802367 18.32646156 -3.35492261 19.65608877 -4 21 C-4.99 21 -5.98 21 -7 21 C-7 20.34 -7 19.68 -7 19 C-8.32 18.34 -9.64 17.68 -11 17 C-10.29875 16.236875 -9.5975 15.47375 -8.875 14.6875 C-5.15256654 10.26111064 -2.64710637 5.11228104 0 0 Z " fill="#2A133B" transform="translate(606,418)"/>
<path d="M0 0 C0.66 0.33 1.32 0.66 2 1 C1.01 2.485 1.01 2.485 0 4 C0.23212966 9.04001408 0.23212966 9.04001408 3 13 C3 13.99 3 14.98 3 16 C4.32 16.66 5.64 17.32 7 18 C7 18.66 7 19.32 7 20 C7.66 20 8.32 20 9 20 C9.625 21.875 9.625 21.875 10 24 C9.34 24.66 8.68 25.32 8 26 C-7 6.3 -7 6.3 -7 3 C-4.69631264 1.93347808 -2.35981813 0.93578995 0 0 Z " fill="#25133C" transform="translate(573,451)"/>
<path d="M0 0 C15.18 0 30.36 0 46 0 C41.6713451 2.16432745 38.43346737 2.34327556 33.734375 2.4140625 C32.54427826 2.44311172 32.54427826 2.44311172 31.33013916 2.4727478 C28.80353443 2.53238361 26.27688375 2.57886443 23.75 2.625 C22.03383463 2.66319455 20.31768813 2.70224715 18.6015625 2.7421875 C14.40119544 2.83807186 10.20073866 2.92216167 6 3 C5.67 3.99 5.34 4.98 5 6 C4.34 6 3.68 6 3 6 C0 2.53846154 0 2.53846154 0 0 Z " fill="#A264CF" transform="translate(618,506)"/>
<path d="M0 0 C-1.15760932 0.66193086 -2.3268383 1.30354146 -3.5 1.9375 C-4.1496875 2.29714844 -4.799375 2.65679687 -5.46875 3.02734375 C-11.52058327 5.35281672 -18.25306556 5.14194756 -24.65625 5.09765625 C-25.44398804 5.0962413 -26.23172607 5.09482635 -27.04333496 5.09336853 C-29.52893064 5.08782612 -32.01443211 5.07528485 -34.5 5.0625 C-36.19791535 5.05747754 -37.89583214 5.05291595 -39.59375 5.04882812 C-43.72920229 5.03787564 -47.86458524 5.02065166 -52 5 C-51.67 4.34 -51.34 3.68 -51 3 C-49.86046875 2.98541748 -48.7209375 2.97083496 -47.546875 2.95581055 C-43.28989413 2.8975218 -39.0334254 2.82029238 -34.77685547 2.73754883 C-32.94002642 2.70444262 -31.10309914 2.67636683 -29.26611328 2.65356445 C-26.61448589 2.61975369 -23.96374717 2.56742707 -21.3125 2.51171875 C-20.50071289 2.50532883 -19.68892578 2.4989389 -18.85253906 2.49235535 C-14.75777463 2.3884693 -11.48088877 1.95261802 -7.66796875 0.40551758 C-4.00804483 -0.99691733 -3.4360026 -1.14066593 0 0 Z " fill="#411B73" transform="translate(672,410)"/>
<path d="M0 0 C1.35117416 0.0001133 1.35117416 0.0001133 2.72964478 0.00022888 C3.70364227 0.00539017 4.67763977 0.01055145 5.68115234 0.01586914 C6.67714447 0.01728409 7.6731366 0.01869904 8.6993103 0.02015686 C11.88860037 0.02576603 15.0778209 0.03832009 18.26708984 0.05102539 C20.425943 0.05603921 22.58479725 0.06060232 24.74365234 0.06469727 C30.04315534 0.07573844 35.34261763 0.09248552 40.64208984 0.11352539 C40.64208984 0.44352539 40.64208984 0.77352539 40.64208984 1.11352539 C26.78208984 1.11352539 12.92208984 1.11352539 -1.35791016 1.11352539 C-1.35791016 3.09352539 -1.35791016 5.07352539 -1.35791016 7.11352539 C-3.0012452 8.15142121 -4.67034882 9.14920463 -6.35791016 10.11352539 C-7.71771897 13.18913785 -7.71771897 13.18913785 -8.35791016 16.11352539 C-9.01791016 16.11352539 -9.67791016 16.11352539 -10.35791016 16.11352539 C-9.86314367 10.47318744 -8.93845394 6.1713912 -6.35791016 1.11352539 C-4.00590956 -0.06247491 -2.62056615 -0.00732002 0 0 Z " fill="#060118" transform="translate(621.35791015625,359.886474609375)"/>
<path d="M0 0 C1.05404274 -0.00021904 1.05404274 -0.00021904 2.12937927 -0.0004425 C4.45062351 0.00025382 6.77178737 0.00803313 9.09301758 0.01586914 C10.70298722 0.01773431 12.31295744 0.01915775 13.92292786 0.02015686 C18.1594703 0.02397421 22.39597843 0.03379785 26.63250732 0.04486084 C30.9559279 0.05509175 35.27935401 0.05965808 39.6027832 0.06469727 C48.08522082 0.0754208 56.56763055 0.09248786 65.05004883 0.11352539 C65.05004883 0.44352539 65.05004883 0.77352539 65.05004883 1.11352539 C29.90504883 1.60852539 29.90504883 1.60852539 -5.94995117 2.11352539 C-5.94995117 2.77352539 -5.94995117 3.43352539 -5.94995117 4.11352539 C-3.98992308 5.75028796 -3.98992308 5.75028796 -1.94995117 7.11352539 C-5.57321857 8.32128119 -6.59141486 7.65663667 -9.94995117 6.11352539 C-9.94995117 4.46352539 -9.94995117 2.81352539 -9.94995117 1.11352539 C-6.44351579 -0.0552864 -3.70093649 -0.00645888 0 0 Z " fill="#060024" transform="translate(593.949951171875,320.886474609375)"/>
<path d="M0 0 C4.875 4.625 4.875 4.625 6 8 C6.845625 8.845625 7.69125 9.69125 8.5625 10.5625 C9.366875 11.366875 10.17125 12.17125 11 13 C11 13.66 11 14.32 11 15 C23.00654777 14.42181583 35.00520067 13.78736811 47 13 C47 13.33 47 13.66 47 14 C38.67457568 15.64590922 30.4019507 16.331716 21.9375 16.75 C20.9261499 16.80663818 19.9147998 16.86327637 18.87280273 16.92163086 C17.91317627 16.96296143 16.9535498 17.00429199 15.96484375 17.046875 C15.1049585 17.08651367 14.24507324 17.12615234 13.35913086 17.16699219 C10.77862973 16.9843302 9.21098641 16.30467685 7 15 C7 13.68 7 12.36 7 11 C5.68 10.34 4.36 9.68 3 9 C3 8.34 3 7.68 3 7 C2.01 7 1.02 7 0 7 C-0.66 5.02 -1.32 3.04 -2 1 C-1.34 0.67 -0.68 0.34 0 0 Z " fill="#190728" transform="translate(633,527)"/>
<path d="M0 0 C3.12290635 0.48578543 5.99580359 0.9986012 9 2 C10.33106622 2.34227417 11.66400079 2.67751743 13 3 C13 4.32 13 5.64 13 7 C13.99 7 14.98 7 16 7 C16.33 6.34 16.66 5.68 17 5 C17.33 5.99 17.66 6.98 18 8 C18.66 8 19.32 8 20 8 C20.66 11.63 21.32 15.26 22 19 C22.99 19.33 23.98 19.66 25 20 C24.34 20.66 23.68 21.32 23 22 C22.62230469 21.45472656 22.24460937 20.90945313 21.85546875 20.34765625 C16.48454631 12.98936672 10.00473632 6.99181207 2.1640625 2.3046875 C1.44992187 1.87414062 0.73578125 1.44359375 0 1 C0 0.67 0 0.34 0 0 Z " fill="#2A1733" transform="translate(579,332)"/>
<path d="M0 0 C1.65 0 3.3 0 5 0 C5 0.66 5 1.32 5 2 C5.66 2 6.32 2 7 2 C7.33 3.65 7.66 5.3 8 7 C8.33 7 8.66 7 9 7 C10.27253436 10.64793184 11.32829194 14.1936543 12 18 C6.55208317 15.52367417 3.02997294 11.0328364 0 6 C-0.4375 2.4375 -0.4375 2.4375 0 0 Z " fill="#EB9DF7" transform="translate(623,508)"/>
<path d="M0 0 C3.11486778 4.67230167 2.56293162 9.66747228 2.74291992 15.17700195 C2.81167518 17.16366693 2.90859966 19.14929199 3.00585938 21.13476562 C3.2603238 28.1916734 3.24462375 33.65788341 0 40 C-0.66 40.66 -1.32 41.32 -2 42 C-2.68132451 43.66072849 -3.34742127 45.327767 -4 47 C-4.66 47.99 -5.32 48.98 -6 50 C-6.66 50 -7.32 50 -8 50 C-6.32932225 44.79370188 -4.27409388 39.8262249 -2.12109375 34.8046875 C-0.27659729 30.19023294 0.12034891 26.47675928 0.09765625 21.484375 C0.09282227 19.60878906 0.09282227 19.60878906 0.08789062 17.6953125 C0.07951172 16.39335937 0.07113281 15.09140625 0.0625 13.75 C0.05798828 12.43257813 0.05347656 11.11515625 0.04882812 9.7578125 C0.03704316 6.50516259 0.02059011 3.25260416 0 0 Z " fill="#361B47" transform="translate(723,464)"/>
<path d="M0 0 C11.42588071 1.80193101 21.75019437 10.28469436 29.37890625 18.58984375 C29.91386719 19.38519531 30.44882812 20.18054688 31 21 C30.67 21.99 30.34 22.98 30 24 C29.34 23.67 28.68 23.34 28 23 C28 22.34 28 21.68 28 21 C27.34 21 26.68 21 26 21 C25.4121875 19.8553125 25.4121875 19.8553125 24.8125 18.6875 C22.34149981 15.02360316 20.10810485 14.47271683 16 13 C16 11.68 16 10.36 16 9 C15.01 9 14.02 9 13 9 C13 8.34 13 7.68 13 7 C12.154375 6.7525 11.30875 6.505 10.4375 6.25 C6.61572526 4.86026373 3.48131937 3.08879162 0 1 C0 0.67 0 0.34 0 0 Z " fill="#EFBAF5" transform="translate(677,328)"/>
<path d="M0 0 C6.18560757 0.24257285 6.18560757 0.24257285 8.5078125 2.40234375 C9.69697648 3.91550151 10.85055244 5.45645613 12 7 C12.66 7 13.32 7 14 7 C14.33 8.98 14.66 10.96 15 13 C17.2477975 10.94766315 18.0022242 9.99332739 19 7 C19.33 7.33 19.66 7.66 20 8 C19.90997602 10.02408755 19.75358962 12.04544287 19.5625 14.0625 C19.46066406 15.16722656 19.35882812 16.27195312 19.25390625 17.41015625 C19.17011719 18.26480469 19.08632813 19.11945313 19 20 C18.34 20 17.68 20 17 20 C15.00558833 18.00558833 14.19463878 16.51429789 13 14 C10.07859835 8.30439911 7.23642992 4.9976836 1.57421875 1.91015625 C1.05472656 1.60980469 0.53523437 1.30945313 0 1 C0 0.67 0 0.34 0 0 Z " fill="#E688F1" transform="translate(667,362)"/>
<path d="M0 0 C0.33 0 0.66 0 1 0 C1.25 2.25 1.25 2.25 1 5 C-0.32 6.32 -1.64 7.64 -3 9 C10.86 9.33 24.72 9.66 39 10 C39 10.33 39 10.66 39 11 C24.26702299 12.09713659 9.7329751 12.56258827 -5 11 C-5.2421875 6.2734375 -5.2421875 6.2734375 -3.0625 3.8125 C-2.381875 3.214375 -1.70125 2.61625 -1 2 C-0.67 1.34 -0.34 0.68 0 0 Z " fill="#0A0323" transform="translate(601,441)"/>
<path d="M0 0 C-1.3238515 3.97155451 -2.81603401 4.27371406 -6.5 6.125 C-11.83503518 8.7031749 -16.10630894 9.80354363 -22 10 C-21 7 -21 7 -19.2578125 6.05078125 C-18.55398438 5.80714844 -17.85015625 5.56351563 -17.125 5.3125 C-16.07699219 4.93544922 -16.07699219 4.93544922 -15.0078125 4.55078125 C-13 4 -13 4 -10 4 C-10 3.34 -10 2.68 -10 2 C-8.71211992 1.46987262 -7.41953322 0.9511671 -6.125 0.4375 C-5.40570312 0.14746094 -4.68640625 -0.14257812 -3.9453125 -0.44140625 C-2 -1 -2 -1 0 0 Z " fill="#EFA9F5" transform="translate(698,529)"/>
<path d="M0 0 C0.33 1.32 0.66 2.64 1 4 C0.34 4 -0.32 4 -1 4 C-1.33 5.65 -1.66 7.3 -2 9 C-1.01 9.66 -0.02 10.32 1 11 C0.814375 11.70125 0.62875 12.4025 0.4375 13.125 C-0.05156976 16.33888698 0.33768442 18.83560336 1 22 C-0.13199353 21.0919838 -1.25532363 20.17316174 -2.375 19.25 C-3.00148438 18.73953125 -3.62796875 18.2290625 -4.2734375 17.703125 C-6.08312318 15.91800519 -7.00117455 14.32050356 -8 12 C-4 6 -4 6 0 0 Z " fill="#020113" transform="translate(711,417)"/>
<path d="M0 0 C0.33 0.66 0.66 1.32 1 2 C-0.25 5.0625 -0.25 5.0625 -2 8 C-2.99 8.33 -3.98 8.66 -5 9 C-6.58333333 10.41666667 -6.58333333 10.41666667 -8 12 C-10.14720899 14.14720899 -11.07790143 14.5434221 -14 15 C-14.66 14.67 -15.32 14.34 -16 14 C-16 13.34 -16 12.68 -16 12 C-17.98 12 -19.96 12 -22 12 C-19.09336351 10.43282733 -16.31222868 9.46897021 -13.125 8.625 C-7.40301867 6.9539789 -3.39812294 5.09718441 0 0 Z " fill="#F29BF9" transform="translate(682,496)"/>
<path d="M0 0 C0.99 0.33 1.98 0.66 3 1 C7.01792265 9.80852273 7.17494453 19.51411906 7 29 C6.34 29.33 5.68 29.66 5 30 C4.85304688 28.40671875 4.85304688 28.40671875 4.703125 26.78125 C3.9010331 18.94649782 2.92690105 12.93752518 -1 6 C-1.3125 3.0625 -1.3125 3.0625 -1 1 C-0.67 0.67 -0.34 0.34 0 0 Z " fill="#F3A7F9" transform="translate(684,456)"/>
<path d="M0 0 C4.95 0 9.9 0 15 0 C13.515 1.485 13.515 1.485 12 3 C14.97 3.495 14.97 3.495 18 4 C17.34 4.66 16.68 5.32 16 6 C15.34 5.67 14.68 5.34 14 5 C14 5.99 14 6.98 14 8 C13.34 8 12.68 8 12 8 C11.67 8.66 11.34 9.32 11 10 C9.16375669 8.52444734 7.3310715 7.04446569 5.5 5.5625 C4.4790625 4.73878906 3.458125 3.91507812 2.40625 3.06640625 C1.6121875 2.38449219 0.818125 1.70257813 0 1 C0 0.67 0 0.34 0 0 Z " fill="#E89AF6" transform="translate(590,326)"/>
<path d="M0 0 C1 2 1 2 0.44140625 3.9453125 C0.15136719 4.66460937 -0.13867188 5.38390625 -0.4375 6.125 C-0.72496094 6.84945313 -1.01242187 7.57390625 -1.30859375 8.3203125 C-1.53675781 8.87460937 -1.76492188 9.42890625 -2 10 C-2.99 10 -3.98 10 -5 10 C-5 10.66 -5 11.32 -5 12 C-7.64 12.33 -10.28 12.66 -13 13 C-13 12.34 -13 11.68 -13 11 C-13.66 10.67 -14.32 10.34 -15 10 C-13.54462432 9.16151196 -12.08559627 8.32936066 -10.625 7.5 C-9.40683594 6.80390625 -9.40683594 6.80390625 -8.1640625 6.09375 C-6 5 -6 5 -4 5 C-3.71125 4.360625 -3.4225 3.72125 -3.125 3.0625 C-2 1 -2 1 0 0 Z " fill="#EBA4F3" transform="translate(679,403)"/>
<path d="M0 0 C0.66 0.33 1.32 0.66 2 1 C2 5.29 2 9.58 2 14 C3.32 14.33 4.64 14.66 6 15 C7.8125 16.875 7.8125 16.875 9 19 C8.67 19.99 8.34 20.98 8 22 C7.67 21.34 7.34 20.68 7 20 C6.34 20 5.68 20 5 20 C-0.49885514 15.21067456 -2.29527258 10.9019198 -2.88671875 3.79296875 C-2.92410156 3.20128906 -2.96148438 2.60960937 -3 2 C-2.01 1.34 -1.02 0.68 0 0 Z " fill="#030120" transform="translate(575,451)"/>
<path d="M0 0 C-12.07578019 1.88894886 -23.79454561 2.22510059 -36 2 C-36 1.67 -36 1.34 -36 1 C-32.04 1 -28.08 1 -24 1 C-24 0.34 -24 -0.32 -24 -1 C-4.99878197 -2.77344702 -4.99878197 -2.77344702 0 0 Z " fill="#CF90DF" transform="translate(680,540)"/>
<path d="M0 0 C4.32401219 3.86375319 5.63882973 8.87948888 6.29296875 14.53125 C6.53139716 21.88846959 4.97127729 28.31854024 0 34 C0 31.69 0 29.38 0 27 C1.32 26.34 2.64 25.68 4 25 C4.31095376 18.73485765 4.26523306 13.58290345 1.734375 7.79296875 C0.69725716 5.26085658 0.33781331 2.7025065 0 0 Z " fill="#3F1B5A" transform="translate(683,462)"/>
<path d="M0 0 C8.30397727 8.07954545 8.30397727 8.07954545 8.6875 15.75 C8.78611328 17.50570313 8.78611328 17.50570313 8.88671875 19.296875 C8.92410156 20.18890625 8.96148438 21.0809375 9 22 C5.7142549 18.31473033 4.15705989 15.17364362 2.8125 10.4375 C2.48894531 9.32246094 2.16539062 8.20742188 1.83203125 7.05859375 C1.19340452 4.71096591 0.57232754 2.36446427 0 0 Z " fill="#F3BCF3" transform="translate(709,437)"/>
<path d="M0 0 C0.33 0.66 0.66 1.32 1 2 C1.66 2 2.32 2 3 2 C2.67 2.99 2.34 3.98 2 5 C1.34 5 0.68 5 0 5 C-0.04125 5.556875 -0.0825 6.11375 -0.125 6.6875 C-1.44401411 10.17346586 -4.13030213 11.71595476 -7 14 C-7.99 15.485 -7.99 15.485 -9 17 C-9.66 16.67 -10.32 16.34 -11 16 C-11.33 16.99 -11.66 17.98 -12 19 C-14.3125 19.6875 -14.3125 19.6875 -17 20 C-18.8125 18.5625 -18.8125 18.5625 -20 17 C-18.7625 16.6596875 -18.7625 16.6596875 -17.5 16.3125 C-10.51055421 13.69145783 -5.3004287 10.124853 -1 4 C-0.14720662 1.78264561 -0.14720662 1.78264561 0 0 Z " fill="#DCD7DF" transform="translate(572,404)"/>
<path d="M0 0 C3.02881176 2.85064637 5.77504073 5.81255092 8.375 9.0625 C9.16003906 10.03896484 9.16003906 10.03896484 9.9609375 11.03515625 C11 13 11 13 10.6640625 15.24609375 C10.44492187 15.82488281 10.22578125 16.40367187 10 17 C7.525 16.01 7.525 16.01 5 15 C5.66 14.67 6.32 14.34 7 14 C6.67 12.68 6.34 11.36 6 10 C4.35 10.33 2.7 10.66 1 11 C1 10.01 1 9.02 1 8 C0.34 7.67 -0.32 7.34 -1 7 C-1 6.01 -1 5.02 -1 4 C-0.34 4 0.32 4 1 4 C0.67 2.68 0.34 1.36 0 0 Z " fill="#310E62" transform="translate(602,336)"/>
<path d="M0 0 C1.09658936 3.28976808 0.79953138 4.71303767 0 8 C0.99 8 1.98 8 3 8 C1.68 10.64 0.36 13.28 -1 16 C-1.66 16 -2.32 16 -3 16 C-3.28875 16.639375 -3.5775 17.27875 -3.875 17.9375 C-5 20 -5 20 -7 21 C-6.49701212 16.59885603 -4.91227269 14.28804981 -2 11 C-2.99 10.67 -3.98 10.34 -5 10 C-3.35 6.7 -1.7 3.4 0 0 Z " fill="#12023E" transform="translate(609,424)"/>
<path d="M0 0 C1.175625 0.5259375 1.175625 0.5259375 2.375 1.0625 C3.24125 1.371875 4.1075 1.68125 5 2 C5.66 1.67 6.32 1.34 7 1 C7.433125 1.45375 7.86625 1.9075 8.3125 2.375 C10.10798342 4.20024334 10.10798342 4.20024334 13 6 C6.73 6 0.46 6 -6 6 C-4 4 -2 2 0 0 Z " fill="#C784EB" transform="translate(603,444)"/>
<path d="M0 0 C0.66 1.98 1.32 3.96 2 6 C1.4225 6.0825 0.845 6.165 0.25 6.25 C-2.1677051 6.8695627 -2.1677051 6.8695627 -4 9 C-6.0819403 11.0819403 -7.14458129 11.59208304 -10 12 C-9.49396008 9.83125748 -9.00016187 8.00032373 -8 6 C-7.34 6 -6.68 6 -6 6 C-5.566875 4.7934375 -5.566875 4.7934375 -5.125 3.5625 C-3.81204892 0.57188921 -3.2474503 0 0 0 Z " fill="#EA9DF5" transform="translate(614,434)"/>
<path d="M0 0 C3.02556598 2.20041162 3.69826755 5.08941888 5.0625 8.5 C5.7225 8.83 6.3825 9.16 7.0625 9.5 C7.46979228 11.82156597 7.80688677 14.1568787 8.0625 16.5 C3.55736569 12.26790414 -0.451792 7.61304141 -3.9375 2.5 C-3.9375 1.84 -3.9375 1.18 -3.9375 0.5 C-1.9375 -0.5 -1.9375 -0.5 0 0 Z " fill="#1D0E38" transform="translate(602.9375,498.5)"/>
<path d="M0 0 C0.33 0.66 0.66 1.32 1 2 C0.109375 4.4609375 0.109375 4.4609375 -1.25 7.375 C-1.68828125 8.33148438 -2.1265625 9.28796875 -2.578125 10.2734375 C-3.86736485 12.74566117 -5.25497502 14.83411606 -7 17 C-6.979375 16.195625 -6.95875 15.39125 -6.9375 14.5625 C-6.70366379 12.06645115 -6.70366379 12.06645115 -8 11 C-6.85373196 7.12032356 -5.77395969 3.99587647 -3 1 C-2.01 0.67 -1.02 0.34 0 0 Z " fill="#11063B" transform="translate(619,415)"/>
<path d="M0 0 C0.33 0 0.66 0 1 0 C2.26599556 18.44736393 2.26599556 18.44736393 -4.17578125 26.34765625 C-6 28 -6 28 -9 29 C-9 27.68 -9 26.36 -9 25 C-8.01 25 -7.02 25 -6 25 C-5.67 23.35 -5.34 21.7 -5 20 C-4.01 19.67 -3.02 19.34 -2 19 C-1.34 12.73 -0.68 6.46 0 0 Z " fill="#271040" transform="translate(681,380)"/>
<path d="M0 0 C0.66 0.33 1.32 0.66 2 1 C1.375 2.9375 1.375 2.9375 0 5 C-3.125 5.75 -3.125 5.75 -6 6 C-6 6.66 -6 7.32 -6 8 C-8.31 8.66 -10.62 9.32 -13 10 C-13 10.66 -13 11.32 -13 12 C-15.64 12 -18.28 12 -21 12 C-18.94241352 9.94241352 -17.64980986 9.32885116 -15 8.25 C-10.38832028 6.28424349 -6.27119773 3.79186958 -2.06640625 1.07421875 C-1.38449219 0.71972656 -0.70257812 0.36523438 0 0 Z " fill="#221234" transform="translate(701,528)"/>
<path d="M0 0 C-2.4907258 3.82504319 -4.97303779 7.56944283 -8 11 C-8.66 11 -9.32 11 -10 11 C-10.33 11.99 -10.66 12.98 -11 14 C-11.66 12.68 -12.32 11.36 -13 10 C-11.625 8.5 -11.625 8.5 -10 7 C-9.34 7 -8.68 7 -8 7 C-7.938125 6.05125 -7.87625 5.1025 -7.8125 4.125 C-7 1 -7 1 -4.5625 -0.4375 C-2 -1 -2 -1 0 0 Z " fill="#EEE7ED" transform="translate(602,427)"/>
<path d="M0 0 C0.66 0.33 1.32 0.66 2 1 C2.52136624 3.39828471 2.8129531 5.5641393 3 8 C3.07734375 8.91394531 3.1546875 9.82789063 3.234375 10.76953125 C3.37088277 13.60206738 3.41741216 16.19356927 3 19 C0.5 21.6875 0.5 21.6875 -2 23 C-1.84152588 22.4337793 -1.68305176 21.86755859 -1.51977539 21.28417969 C-0.99214152 18.9654655 -0.795844 16.82641603 -0.68359375 14.453125 C-0.64169922 13.60878906 -0.59980469 12.76445312 -0.55664062 11.89453125 C-0.51732422 11.02183594 -0.47800781 10.14914062 -0.4375 9.25 C-0.39431641 8.36183594 -0.35113281 7.47367187 -0.30664062 6.55859375 C-0.20086385 4.37254037 -0.09877454 2.18637911 0 0 Z " fill="#F3B4FA" transform="translate(682,379)"/>
<path d="M0 0 C1 3 1 3 1 6 C2.32 6.66 3.64 7.32 5 8 C5 8.66 5 9.32 5 10 C6.32 10.33 7.64 10.66 9 11 C8.67 12.98 8.34 14.96 8 17 C5.20556615 14.28593704 2.66831696 11.49140027 0.25 8.4375 C-0.36359375 7.67308594 -0.9771875 6.90867187 -1.609375 6.12109375 C-3 4 -3 4 -3 1 C-2.01 0.67 -1.02 0.34 0 0 Z " fill="#2C0E43" transform="translate(615,514)"/>
<path d="M0 0 C5.30097087 3.80582524 5.30097087 3.80582524 6 8 C6.66 8.66 7.32 9.32 8 10 C7.67 10.66 7.34 11.32 7 12 C6.34 12 5.68 12 5 12 C4.67 11.67 4.34 11.34 4 11 C3.67 11.66 3.34 12.32 3 13 C2.01 12.34 1.02 11.68 0 11 C0 10.34 0 9.68 0 9 C-0.99 8.67 -1.98 8.34 -3 8 C-2.319375 7.4225 -1.63875 6.845 -0.9375 6.25 C0.0215625 5.13625 0.0215625 5.13625 1 4 C0.86358623 1.78141747 0.86358623 1.78141747 0 0 Z " fill="#150238" transform="translate(592,328)"/>
<path d="M0 0 C2.875 0.625 2.875 0.625 6 2 C7.72748867 5.61202177 8 7.97231596 8 12 C8.66 12 9.32 12 10 12 C10.33 15.3 10.66 18.6 11 22 C9.06935403 19.10403104 7.90899329 16.47225068 6.625 13.25 C4.71579286 8.58179027 2.63524363 4.2944711 0 0 Z " fill="#1B0A2B" transform="translate(712,439)"/>
<path d="M0 0 C2.40243465 2.15344283 3.60244944 3.96874765 4.6875 7 C4.93886719 7.680625 5.19023438 8.36125 5.44921875 9.0625 C6 11 6 11 6 14 C4.35 14 2.7 14 1 14 C-0.20568053 9.32798795 -0.09382426 4.78503708 0 0 Z " fill="#0E071E" transform="translate(568,370)"/>
<path d="M0 0 C4.875 4.625 4.875 4.625 6 8 C7.62652316 9.70586575 9.29006566 11.3777546 11 13 C9.68 13.33 8.36 13.66 7 14 C7 13.01 7 12.02 7 11 C5.68 10.34 4.36 9.68 3 9 C3 8.34 3 7.68 3 7 C2.01 7 1.02 7 0 7 C-0.66 5.02 -1.32 3.04 -2 1 C-1.34 0.67 -0.68 0.34 0 0 Z " fill="#1F0F30" transform="translate(633,527)"/>
<path d="M0 0 C-0.33 0.99 -0.66 1.98 -1 3 C1.31 3 3.62 3 6 3 C6 3.66 6 4.32 6 5 C6.99 5.33 7.98 5.66 9 6 C6.1875 6.625 6.1875 6.625 3 7 C2.01 6.34 1.02 5.68 0 5 C-1.155 4.67 -2.31 4.34 -3.5 4 C-7 3 -7 3 -10 1 C-6.78548731 -0.60725635 -3.56387464 -0.05748185 0 0 Z " fill="#08021A" transform="translate(583,328)"/>
<path d="M0 0 C0.66 0.33 1.32 0.66 2 1 C2.02896822 5.43748635 2.04678788 9.87494847 2.0625 14.3125 C2.07087891 15.57513672 2.07925781 16.83777344 2.08789062 18.13867188 C2.09111328 19.34716797 2.09433594 20.55566406 2.09765625 21.80078125 C2.10289307 22.91622314 2.10812988 24.03166504 2.11352539 25.1809082 C2 28 2 28 1 31 C0.34 31 -0.32 31 -1 31 C-0.9278125 30.35417969 -0.855625 29.70835937 -0.78125 29.04296875 C0.17274356 19.35728418 0.09150439 9.71980008 0 0 Z " fill="#180837" transform="translate(718,373)"/>
<path d="M0 0 C0.66 0.33 1.32 0.66 2 1 C2 1.66 2 2.32 2 3 C2.66 3 3.32 3 4 3 C4.66 6.63 5.32 10.26 6 14 C6.99 14.33 7.98 14.66 9 15 C8.34 15.66 7.68 16.32 7 17 C5.87064804 15.58680023 4.74669374 14.16928595 3.625 12.75 C2.99851562 11.96109375 2.37203125 11.1721875 1.7265625 10.359375 C0.21089263 8.28818811 -0.94219634 6.32930503 -2 4 C-1.01 4 -0.02 4 1 4 C0.67 2.68 0.34 1.36 0 0 Z " fill="#240D3C" transform="translate(595,337)"/>
<path d="M0 0 C0.66 0.99 1.32 1.98 2 3 C-8.23 2.34 -18.46 1.68 -29 1 C-29 0.67 -29 0.34 -29 0 C-25.85483435 -0.2000026 -22.70887688 -0.38264359 -19.5625 -0.5625 C-18.68400391 -0.61857422 -17.80550781 -0.67464844 -16.90039062 -0.73242188 C-4.7739015 -1.40362976 -4.7739015 -1.40362976 0 0 Z " fill="#170F2C" transform="translate(557,322)"/>
<path d="M0 0 C6.57142857 4 6.57142857 4 8 8 C8.99 8 9.98 8 11 8 C11.66 8.33 12.32 8.66 13 9 C13 9.66 13 10.32 13 11 C12.21625 11.103125 11.4325 11.20625 10.625 11.3125 C7.66954819 11.77595022 7.66954819 11.77595022 6 15 C5.67 12.36 5.34 9.72 5 7 C4.01 6.67 3.02 6.34 2 6 C0 3 0 3 0 0 Z " fill="#050123" transform="translate(605,501)"/>
<path d="M0 0 C0.61875 0.66 1.2375 1.32 1.875 2 C3.75637427 4.2284549 3.75637427 4.2284549 6 4 C8.84450614 7.71973879 9.3227506 10.37390802 9 15 C6.14784917 12.24881027 3.65641299 9.39684775 1.25 6.25 C0.63640625 5.45078125 0.0228125 4.6515625 -0.609375 3.828125 C-1.06828125 3.22484375 -1.5271875 2.6215625 -2 2 C-1.34 1.34 -0.68 0.68 0 0 Z " fill="#EDEAED" transform="translate(510,437)"/>
<path d="M0 0 C0.33 0 0.66 0 1 0 C1.02888514 3.14581423 1.04675923 6.29159469 1.0625 9.4375 C1.07087891 10.33533203 1.07925781 11.23316406 1.08789062 12.15820312 C1.09111328 13.01220703 1.09433594 13.86621094 1.09765625 14.74609375 C1.10289307 15.53685303 1.10812988 16.3276123 1.11352539 17.14233398 C1 19 1 19 0 20 C0.020625 20.969375 0.04125 21.93875 0.0625 22.9375 C0 26 0 26 -2 28 C-2.32417212 18.49095101 -1.33418593 9.38695104 0 0 Z " fill="#FBC7FC" transform="translate(722,472)"/>
<path d="M0 0 C1.98 0 3.96 0 6 0 C5.505 0.391875 5.01 0.78375 4.5 1.1875 C2.54406857 3.55091715 2.75792027 5.01435003 3 8 C2.34 8 1.68 8 1 8 C1 13.61 1 19.22 1 25 C0.67 25 0.34 25 0 25 C0 16.75 0 8.5 0 0 Z " fill="#0D0912" transform="translate(490,360)"/>
<path d="M0 0 C0.99 0 1.98 0 3 0 C4.75390625 2.08203125 4.75390625 2.08203125 6.5625 4.8125 C7.16191406 5.70582031 7.76132812 6.59914063 8.37890625 7.51953125 C8.91386719 8.33808594 9.44882812 9.15664063 10 10 C10.99 11.485 10.99 11.485 12 13 C11.34 13 10.68 13 10 13 C9.67 13.66 9.34 14.32 9 15 C8.67386719 14.44570313 8.34773437 13.89140625 8.01171875 13.3203125 C7.57472656 12.59585937 7.13773438 11.87140625 6.6875 11.125 C6.25824219 10.40570313 5.82898438 9.68640625 5.38671875 8.9453125 C3.98247625 6.73153667 3.98247625 6.73153667 1 5 C0.3125 2.375 0.3125 2.375 0 0 Z " fill="#E5DBE6" transform="translate(594,496)"/>
<path d="M0 0 C0.66 0 1.32 0 2 0 C3.38232443 1.62626404 4.71937515 3.2925002 6 5 C5.34 6.32 4.68 7.64 4 9 C3.34 9 2.68 9 2 9 C2 9.66 2 10.32 2 11 C1.34 11 0.68 11 0 11 C-0.19491452 9.54263913 -0.38069358 8.08405407 -0.5625 6.625 C-0.66691406 5.81289063 -0.77132812 5.00078125 -0.87890625 4.1640625 C-1 2 -1 2 0 0 Z " fill="#2A0E51" transform="translate(621,512)"/>
<path d="M0 0 C0.33 0 0.66 0 1 0 C1 5.61 1 11.22 1 17 C0.34 17.33 -0.32 17.66 -1 18 C-1.33 18.99 -1.66 19.98 -2 21 C-2.66 21 -3.32 21 -4 21 C-3.87882813 20.40574219 -3.75765625 19.81148438 -3.6328125 19.19921875 C-2.34170672 12.81321092 -1.14614408 6.41352965 0 0 Z " fill="#321A33" transform="translate(611,397)"/>
<path d="M0 0 C0.33 0.66 0.66 1.32 1 2 C0.34 2 -0.32 2 -1 2 C-1.103125 2.804375 -1.20625 3.60875 -1.3125 4.4375 C-2.15100373 8.78247386 -3.52821659 12.83457527 -5 17 C-7.02350324 13.96474514 -7.32124018 12.80573798 -7.625 9.3125 C-7.69976563 8.50425781 -7.77453125 7.69601562 -7.8515625 6.86328125 C-7.90054688 6.24839844 -7.94953125 5.63351562 -8 5 C-6.515 5.99 -6.515 5.99 -5 7 C-4.67 6.34 -4.34 5.68 -4 5 C-3.34 5 -2.68 5 -2 5 C-2 3.68 -2 2.36 -2 1 C-1.34 0.67 -0.68 0.34 0 0 Z " fill="#1B1030" transform="translate(616,359)"/>
<path d="M0 0 C0.66 0.66 1.32 1.32 2 2 C0.02409073 7.9277278 -2.39969281 11.0716466 -8 14 C-8.66 14 -9.32 14 -10 14 C-9.67 12.35 -9.34 10.7 -9 9 C-8.195625 8.87625 -7.39125 8.7525 -6.5625 8.625 C-5.716875 8.41875 -4.87125 8.2125 -4 8 C-3.67 7.34 -3.34 6.68 -3 6 C-2.34 6 -1.68 6 -1 6 C-0.67 4.02 -0.34 2.04 0 0 Z " fill="#13072D" transform="translate(682,490)"/>
<path d="M0 0 C1.27230469 0.00902344 2.54460937 0.01804687 3.85546875 0.02734375 C5.31919922 0.04474609 5.31919922 0.04474609 6.8125 0.0625 C6.4825 0.7225 6.1525 1.3825 5.8125 2.0625 C3.10650158 2.53847366 0.47654596 2.90343629 -2.25 3.1875 C-3.00861328 3.27386719 -3.76722656 3.36023438 -4.54882812 3.44921875 C-6.42746986 3.66189517 -8.30738636 3.86325459 -10.1875 4.0625 C-10.1875 3.0725 -10.1875 2.0825 -10.1875 1.0625 C-6.62704823 -0.12431726 -3.74941663 -0.03439832 0 0 Z " fill="#05031A" transform="translate(506.1875,419.9375)"/>
<path d="M0 0 C0.97066406 0.15339844 1.94132813 0.30679687 2.94140625 0.46484375 C7.26219894 1.08209985 11.58141318 1.33480395 15.9375 1.5625 C16.71673828 1.60568359 17.49597656 1.64886719 18.29882812 1.69335938 C20.19907117 1.79828077 22.09951669 1.8995245 24 2 C24 2.33 24 2.66 24 3 C16.74 3 9.48 3 2 3 C1.67 3.66 1.34 4.32 1 5 C0.67 3.35 0.34 1.7 0 0 Z " fill="#F59FF6" transform="translate(616,354)"/>
<path d="M0 0 C0.66 0.66 1.32 1.32 2 2 C1.7788924 4.74173421 1.47476651 7.30610016 1 10 C0.87625 10.804375 0.7525 11.60875 0.625 12.4375 C0.41875 12.953125 0.2125 13.46875 0 14 C-0.99 14.33 -1.98 14.66 -3 15 C-2.88529863 13.24929483 -2.75780972 11.49942464 -2.625 9.75 C-2.55539062 8.77546875 -2.48578125 7.8009375 -2.4140625 6.796875 C-2.01534751 4.10366811 -1.36492937 2.33036721 0 0 Z " fill="#EBB5F2" transform="translate(715,398)"/>
<path d="M0 0 C0.33 0.99 0.66 1.98 1 3 C1.66 3 2.32 3 3 3 C3 3.66 3 4.32 3 5 C-2.69305433 3.76123355 -8.35370013 2.43723997 -14 1 C-14 0.67 -14 0.34 -14 0 C-12.04235617 -0.19456705 -10.08384679 -0.38044247 -8.125 -0.5625 C-6.48917969 -0.71912109 -6.48917969 -0.71912109 -4.8203125 -0.87890625 C-2 -1 -2 -1 0 0 Z " fill="#110A1F" transform="translate(674,322)"/>
<path d="M0 0 C3.12270126 2.51830747 3.94523098 3.7261549 4.75 7.75 C4.8325 8.8225 4.915 9.895 5 11 C2.42452602 10.65660347 1.31105887 10.39993284 -0.3125 8.3125 C-1.21465796 5.27796869 -0.69345348 3.05119529 0 0 Z " fill="#100827" transform="translate(583,472)"/>
<path d="M0 0 C3.97446842 1.27750771 5.29623465 3.70957896 7.265625 7.1484375 C8 9 8 9 8 13 C7.01 12.67 6.02 12.34 5 12 C4.27095914 10.35965807 3.61344757 8.68698082 3 7 C2.46375 6.113125 1.9275 5.22625 1.375 4.3125 C0 2 0 2 0 0 Z " fill="#280F3D" transform="translate(673,367)"/>
<path d="M0 0 C0.99 0.33 1.98 0.66 3 1 C3 1.99 3 2.98 3 4 C3.99 4 4.98 4 6 4 C6.92844389 8.33273814 6.92844389 11.66726186 6 16 C4.45921385 13.01559439 3.13026724 9.98992242 1.875 6.875 C1.52179687 6.00617188 1.16859375 5.13734375 0.8046875 4.2421875 C0 2 0 2 0 0 Z " fill="#211231" transform="translate(712,356)"/>
<path d="M0 0 C1.59138085 4.17737474 2.21278058 7.53160785 2 12 C-0.77135062 10.61432469 -1.56096091 8.43104832 -3 5.7890625 C-3.91907273 4.14478395 -4.95510816 2.56733776 -6 1 C-3 0 -3 0 0 0 Z " fill="#D283EA" transform="translate(638,524)"/>
<path d="M0 0 C0.99 0.66 1.98 1.32 3 2 C3 2.66 3 3.32 3 4 C3.66 4.33 4.32 4.66 5 5 C3.02 5.99 3.02 5.99 1 7 C1 7.99 1 8.98 1 10 C-0.32 9.34 -1.64 8.68 -3 8 C-3 6.02 -3 4.04 -3 2 C-2.01 2 -1.02 2 0 2 C0 1.34 0 0.68 0 0 Z " fill="#0C0236" transform="translate(628,523)"/>
<path d="M0 0 C1.875 0.75 1.875 0.75 4 2 C4.2578125 2.66 4.515625 3.32 4.78125 4 C5.86482744 6.27016883 5.86482744 6.27016883 8.6015625 6.828125 C9.59929688 6.96734375 10.59703125 7.1065625 11.625 7.25 C13.12933594 7.47429688 13.12933594 7.47429688 14.6640625 7.703125 C15.43492187 7.80109375 16.20578125 7.8990625 17 8 C17 8.33 17 8.66 17 9 C6.37075352 10.06801041 6.37075352 10.06801041 3.08984375 7.51171875 C1.31897455 5.01804579 0 3.10630411 0 0 Z " fill="#F5B4FB" transform="translate(639,532)"/>
<path d="M0 0 C8.57142857 -0.28571429 8.57142857 -0.28571429 12 2 C11.67 2.66 11.34 3.32 11 4 C7.7 4 4.4 4 1 4 C0.67 2.68 0.34 1.36 0 0 Z " fill="#0B0721" transform="translate(544,360)"/>
<path d="M0 0 C-0.99 0.495 -0.99 0.495 -2 1 C-2.33 1.99 -2.66 2.98 -3 4 C-7.455 4.495 -7.455 4.495 -12 5 C-11.67 4.01 -11.34 3.02 -11 2 C-7.24092359 0.37676246 -4.07913787 -0.23994929 0 0 Z " fill="#F5B2FA" transform="translate(688,534)"/>
<path d="M0 0 C3.13190982 1.0799689 4.00599212 2.00950474 5.8125 4.875 C7.05537349 8.1457197 7.00271664 8.84860486 6 12 C4.8001722 10.57277341 3.6154424 9.13284224 2.4375 7.6875 C1.77621094 6.88699219 1.11492188 6.08648437 0.43359375 5.26171875 C-0.27603516 4.14216797 -0.27603516 4.14216797 -1 3 C-0.67 2.01 -0.34 1.02 0 0 Z " fill="#EFEEEF" transform="translate(560,504)"/>
<path d="M0 0 C0.33 0.66 0.66 1.32 1 2 C-0.23869658 5.12933873 -1.15270072 7.39869083 -3.9375 9.375 C-6 10 -6 10 -10 10 C-10 9.34 -10 8.68 -10 8 C-8.3203125 6.81640625 -8.3203125 6.81640625 -6.125 5.5625 C-3.08869645 3.82669206 -2.00897332 3.01345998 0 0 Z " fill="#E0A5ED" transform="translate(682,496)"/>
<path d="M0 0 C4.29 0 8.58 0 13 0 C8.5 3.375 8.5 3.375 4.25 3.6875 C3.45078125 3.75324219 2.6515625 3.81898438 1.828125 3.88671875 C1.22484375 3.92410156 0.6215625 3.96148437 0 4 C0 2.68 0 1.36 0 0 Z " fill="#F5B1FE" transform="translate(620,415)"/>
<path d="M0 0 C0.66 0 1.32 0 2 0 C3.14982602 4.09003859 3.11094256 8.03177051 3.0625 12.25 C3.05798828 12.99507813 3.05347656 13.74015625 3.04882812 14.5078125 C3.03709246 16.3385764 3.0191585 18.16929873 3 20 C2.67 20 2.34 20 2 20 C-0.29612756 6.3667426 -0.29612756 6.3667426 0 0 Z " fill="#BF96D7" transform="translate(716,372)"/>
<path d="M0 0 C0.33 0.99 0.66 1.98 1 3 C0 4 -1 5 -2 6 C-2.680625 6.721875 -3.36125 7.44375 -4.0625 8.1875 C-6 10 -6 10 -8 10 C-8.99 9.67 -9.98 9.34 -11 9 C-10.45730469 8.60167969 -9.91460938 8.20335937 -9.35546875 7.79296875 C-8.64003906 7.26316406 -7.92460938 6.73335938 -7.1875 6.1875 C-6.47980469 5.66542969 -5.77210938 5.14335937 -5.04296875 4.60546875 C-3.21468607 3.16871123 -1.60103312 1.68184237 0 0 Z " fill="#241E29" transform="translate(594,437)"/>
<path d="M0 0 C0.33 0 0.66 0 1 0 C1.05382106 2.62527189 1.09358313 5.24944713 1.125 7.875 C1.14175781 8.62136719 1.15851562 9.36773437 1.17578125 10.13671875 C1.1933959 12.09194461 1.10320189 14.04742021 1 16 C0.34 16.66 -0.32 17.32 -1 18 C-3 15 -3 15 -2.6875 11.9375 C-2 9 -2 9 -1 7 C-0.63858045 4.67085177 -0.30300475 2.33746522 0 0 Z " fill="#190D34" transform="translate(574,384)"/>
<path d="M0 0 C0 0.66 0 1.32 0 2 C0.61875 2.309375 1.2375 2.61875 1.875 2.9375 C3.25 3.625 4.625 4.3125 6 5 C6 6.65 6 8.3 6 10 C5.236875 9.21625 4.47375 8.4325 3.6875 7.625 C0.18623228 4.20515711 -2.23057915 2.7734196 -7 2 C-4 0 -4 0 0 0 Z " fill="#F6A5FC" transform="translate(674,360)"/>
<path d="M0 0 C0.78375 0.185625 1.5675 0.37125 2.375 0.5625 C4.97089775 1.25962266 4.97089775 1.25962266 7 0 C7 1.98 7 3.96 7 6 C6.34 6 5.68 6 5 6 C4.67 6.99 4.34 7.98 4 9 C2.68 6.03 1.36 3.06 0 0 Z " fill="#1C0C3A" transform="translate(603,355)"/>
<path d="M0 0 C2.99324263 1.0975223 3.84610901 1.67682892 5.25 4.625 C5.4975 5.40875 5.745 6.1925 6 7 C6.66 7 7.32 7 8 7 C8 7.66 8 8.32 8 9 C8.66 9.33 9.32 9.66 10 10 C9.01 10.33 8.02 10.66 7 11 C3.17330957 7.57611908 1.27721526 4.99275057 0 0 Z " fill="#F3ADF6" transform="translate(697,342)"/>
<path d="M0 0 C0.33 0 0.66 0 1 0 C1.05451714 2.04136395 1.09302485 4.08315856 1.125 6.125 C1.14820313 7.26195312 1.17140625 8.39890625 1.1953125 9.5703125 C0.99672109 13.05757767 0.2524801 15.7553862 -1 19 C-1.66 19 -2.32 19 -3 19 C-2.125 11.375 -2.125 11.375 -1 8 C-0.78444749 6.6082227 -0.59806254 5.21168784 -0.4375 3.8125 C-0.2209375 1.9253125 -0.2209375 1.9253125 0 0 Z " fill="#020019" transform="translate(680,380)"/>
<path d="M0 0 C0.33 0.66 0.66 1.32 1 2 C1.66 2 2.32 2 3 2 C3 4.31 3 6.62 3 9 C2.01 8.34 1.02 7.68 0 7 C0 6.34 0 5.68 0 5 C-0.969375 4.71125 -1.93875 4.4225 -2.9375 4.125 C-6 3 -6 3 -7 1 C-4.03 1.495 -4.03 1.495 -1 2 C-0.67 1.34 -0.34 0.68 0 0 Z " fill="#CF8EE1" transform="translate(680,452)"/>
<path d="M0 0 C0.33 1.32 0.66 2.64 1 4 C0.34 4 -0.32 4 -1 4 C-1.04125 5.093125 -1.0825 6.18625 -1.125 7.3125 C-2 11 -2 11 -5.0625 12.9375 C-6.031875 13.288125 -7.00125 13.63875 -8 14 C-6.6744419 10.37723685 -5.05653045 7.36494652 -2.875 4.1875 C-2.33617187 3.39730469 -1.79734375 2.60710937 -1.2421875 1.79296875 C-0.83226562 1.20128906 -0.42234375 0.60960937 0 0 Z " fill="#2F1A41" transform="translate(711,417)"/>
<path d="M0 0 C-6.54216759 3.94998798 -11.42228293 4.50146657 -19 4 C-19 3.67 -19 3.34 -19 3 C-18.12988281 2.81824219 -18.12988281 2.81824219 -17.2421875 2.6328125 C-13.62319746 1.8564615 -10.17854751 1.0640076 -6.6875 -0.1875 C-3.80924224 -1.05767095 -2.78618635 -0.83763812 0 0 Z " fill="#1E0D49" transform="translate(672,410)"/>
<path d="M0 0 C0.33 0.66 0.66 1.32 1 2 C5.455 1.505 5.455 1.505 10 1 C6.85590394 3.66038897 3.87486269 4.7083791 0 6 C-0.33 6.66 -0.66 7.32 -1 8 C-0.67 5.36 -0.34 2.72 0 0 Z " fill="#EEA1F4" transform="translate(619,417)"/>
<path d="M0 0 C2.475 0.99 2.475 0.99 5 2 C4.67 3.65 4.34 5.3 4 7 C2.35 6.67 0.7 6.34 -1 6 C-1.33 5.01 -1.66 4.02 -2 3 C-1.34 3 -0.68 3 0 3 C0 2.01 0 1.02 0 0 Z " fill="#F09CF9" transform="translate(604,331)"/>
<path d="M0 0 C0.66 0 1.32 0 2 0 C4.04169485 2.90548882 5 4.40142046 5 8 C5.99 8 6.98 8 8 8 C7.67 8.66 7.34 9.32 7 10 C5.0625 9.6875 5.0625 9.6875 3 9 C2.67 8.01 2.34 7.02 2 6 C1.34 5.67 0.68 5.34 0 5 C-0.6875 3 -0.6875 3 -1 1 C-0.67 0.67 -0.34 0.34 0 0 Z " fill="#190251" transform="translate(616,515)"/>
<path d="M0 0 C0.66 0.33 1.32 0.66 2 1 C2 2.98 2 4.96 2 7 C2.66 7 3.32 7 4 7 C3.34 8.32 2.68 9.64 2 11 C1.16094435 9.87926138 0.32892169 8.75325453 -0.5 7.625 C-0.9640625 6.99851562 -1.428125 6.37203125 -1.90625 5.7265625 C-3 4 -3 4 -3 2 C-2.01 2 -1.02 2 0 2 C0 1.34 0 0.68 0 0 Z " fill="#E9E5E8" transform="translate(546,482)"/>
<path d="M0 0 C0.33 0.66 0.66 1.32 1 2 C-0.36328125 4.56640625 -0.36328125 4.56640625 -2.3125 7.5625 C-3.26576172 9.04943359 -3.26576172 9.04943359 -4.23828125 10.56640625 C-6 13 -6 13 -8 14 C-8 13.01 -8 12.02 -8 11 C-7.34 11 -6.68 11 -6 11 C-5.896875 10.278125 -5.79375 9.55625 -5.6875 8.8125 C-4.93217477 5.72253314 -3.80862024 3.60441314 -2 1 C-1.34 0.67 -0.68 0.34 0 0 Z " fill="#E0A4E9" transform="translate(713,412)"/>
<path d="M0 0 C1.43739513 -0.02712066 2.87493863 -0.04645067 4.3125 -0.0625 C5.51326172 -0.07990234 5.51326172 -0.07990234 6.73828125 -0.09765625 C9 0 9 0 12 1 C12 1.66 12 2.32 12 3 C7.06729471 4.6442351 4.45975807 3.18615592 0 1 C0 0.67 0 0.34 0 0 Z " fill="#DE98F3" transform="translate(658,358)"/>
<path d="M0 0 C0.33 0.66 0.66 1.32 1 2 C1.8971875 1.6596875 1.8971875 1.6596875 2.8125 1.3125 C5 1 5 1 6.75 2.25 C8 4 8 4 8 7 C4.40608886 5.66511872 1.24509304 4.03977277 -2 2 C-1.34 1.34 -0.68 0.68 0 0 Z " fill="#291A35" transform="translate(687,329)"/>
<path d="M0 0 C0.33 1.32 0.66 2.64 1 4 C1.66 4 2.32 4 3 4 C1.125 8.75 1.125 8.75 0 11 C-0.99 11 -1.98 11 -3 11 C-2.01 7.37 -1.02 3.74 0 0 Z " fill="#1A0A24" transform="translate(716,405)"/>
<path d="M0 0 C0.66 0 1.32 0 2 0 C2 2.64 2 5.28 2 8 C2.66 8 3.32 8 4 8 C4 10.64 4 13.28 4 16 C3.67 16 3.34 16 3 16 C3 14.02 3 12.04 3 10 C2.01 9.67 1.02 9.34 0 9 C0 6.03 0 3.06 0 0 Z " fill="#ECA1F1" transform="translate(714,384)"/>
<path d="M0 0 C0.66 0 1.32 0 2 0 C2.33 3.96 2.66 7.92 3 12 C2.01 12.33 1.02 12.66 0 13 C0 8.71 0 4.42 0 0 Z " fill="#0D000D" transform="translate(613,383)"/>
<path d="M0 0 C6.14587738 0.2410148 6.14587738 0.2410148 8.578125 2.40234375 C9.78844931 3.88046971 10.90220903 5.43647953 12 7 C11.67 7.66 11.34 8.32 11 9 C9.54033966 7.87672229 8.08231636 6.75131706 6.625 5.625 C5.81289063 4.99851562 5.00078125 4.37203125 4.1640625 3.7265625 C2 2 2 2 0 0 Z " fill="#D7A6E5" transform="translate(667,362)"/>
<path d="M0 0 C0.66 1.32 1.32 2.64 2 4 C1.01 4.33 0.02 4.66 -1 5 C-2.81501254 6.82847958 -2.81501254 6.82847958 -4.5625 9 C-7.80152672 12.90076336 -7.80152672 12.90076336 -10 14 C-8.66189532 11.07289602 -7.14313267 8.83245076 -5 6.4375 C-3.12253722 4.33004803 -1.57778314 2.36667471 0 0 Z " fill="#271830" transform="translate(714,514)"/>
<path d="M0 0 C4.22753707 0.67640593 7.44197656 2.7174944 11 5 C11.33 5.99 11.66 6.98 12 8 C8.59687262 6.94124926 5.98646769 5.99097846 3 4 C3 3.34 3 2.68 3 2 C2.01 2 1.02 2 0 2 C0 1.34 0 0.68 0 0 Z " fill="#1F0C33" transform="translate(669,452)"/>
<path d="M0 0 C0.66 0 1.32 0 2 0 C1.67 1.65 1.34 3.3 1 5 C0.34 5 -0.32 5 -1 5 C-1.28875 5.639375 -1.5775 6.27875 -1.875 6.9375 C-3 9 -3 9 -5 10 C-4.49890042 5.61537866 -3.01704885 3.1999003 0 0 Z " fill="#180942" transform="translate(607,435)"/>
<path d="M0 0 C4.875 4.625 4.875 4.625 6 8 C5.01 8.495 5.01 8.495 4 9 C2.35 7.68 0.7 6.36 -1 5 C-0.67 3.35 -0.34 1.7 0 0 Z " fill="#EBE0E6" transform="translate(614,520)"/>
<path d="M0 0 C2.3125 0.1875 2.3125 0.1875 5 1 C6.8125 3.5625 6.8125 3.5625 8 6 C7.34 6.66 6.68 7.32 6 8 C4.02 5.36 2.04 2.72 0 0 Z " fill="#E9E6EA" transform="translate(552,497)"/>
<path d="M0 0 C0.33 0 0.66 0 1 0 C0.7444669 5.86448454 0.34242429 9.65757571 -4 14 C-4 11.69 -4 9.38 -4 7 C-2.68 6.34 -1.36 5.68 0 5 C0 3.35 0 1.7 0 0 Z " fill="#2B1151" transform="translate(687,482)"/>
<path d="M0 0 C4.43090471 1.20842856 6.98112756 2.51668565 10 6 C3.375 5.25 3.375 5.25 0 3 C0 2.01 0 1.02 0 0 Z " fill="#120523" transform="translate(663,361)"/>
<path d="M0 0 C0.66 0.33 1.32 0.66 2 1 C1.360625 1.556875 0.72125 2.11375 0.0625 2.6875 C-2.19680987 5.22066561 -2.63149047 6.68341424 -3 10 C-3.99 9.67 -4.98 9.34 -6 9 C-5.69381595 5.32579134 -5.24228216 4.21864487 -2.4375 1.6875 C-1.633125 1.130625 -0.82875 0.57375 0 0 Z " fill="#FAB3FA" transform="translate(712,511)"/>
<path d="M0 0 C-1.98 2.97 -1.98 2.97 -4 6 C-4.99 5.67 -5.98 5.34 -7 5 C-6.67 3.35 -6.34 1.7 -6 0 C-2.25 -1.125 -2.25 -1.125 0 0 Z " fill="#F5EDF2" transform="translate(602,427)"/>
<path d="M0 0 C3.33511388 2.9901021 5.21521119 5.89498574 7 10 C7 10.66 7 11.32 7 12 C4 11 4 11 2.83203125 9.00390625 C2.49558594 8.19824219 2.15914062 7.39257812 1.8125 6.5625 C1.46832031 5.75941406 1.12414062 4.95632813 0.76953125 4.12890625 C0 2 0 2 0 0 Z " fill="#E9DEE6" transform="translate(600,352)"/>
<path d="M0 0 C3.14027363 0.33645789 4.05098295 1.05236086 6.3125 3.375 C6.869375 4.24125 7.42625 5.1075 8 6 C7.67 6.99 7.34 7.98 7 9 C6.34 8.67 5.68 8.34 5 8 C5 7.34 5 6.68 5 6 C4.34 6 3.68 6 3 6 C2.01 4.02 1.02 2.04 0 0 Z " fill="#EDCEF0" transform="translate(700,343)"/>
<path d="M0 0 C0.66 0 1.32 0 2 0 C-0.89066059 9.59453303 -0.89066059 9.59453303 -4 13 C-4.33 11.68 -4.66 10.36 -5 9 C-4.34 9 -3.68 9 -3 9 C-2.67 7.35 -2.34 5.7 -2 4 C-1.34 4 -0.68 4 0 4 C-0.33 3.01 -0.66 2.02 -1 1 C-0.67 0.67 -0.34 0.34 0 0 Z " fill="#F0E7EE" transform="translate(606,413)"/>
<path d="M0 0 C1.32 0.33 2.64 0.66 4 1 C4 1.66 4 2.32 4 3 C5.9600281 4.63676257 5.9600281 4.63676257 8 6 C4.37673261 7.2077558 3.35853631 6.54311128 0 5 C0 3.35 0 1.7 0 0 Z " fill="#0E0823" transform="translate(584,322)"/>
<path d="M0 0 C1.98 0.66 3.96 1.32 6 2 C5.67 3.98 5.34 5.96 5 8 C2.20127563 5.47211993 0.54226981 3.79588866 0 0 Z " fill="#1A0A34" transform="translate(618,523)"/>
<path d="M0 0 C1.32 0.33 2.64 0.66 4 1 C4.33 3.31 4.66 5.62 5 8 C2.5 6.25 2.5 6.25 0 4 C0 2.68 0 1.36 0 0 Z " fill="#F0ABFB" transform="translate(623,510)"/>
<path d="M0 0 C0.66 0.33 1.32 0.66 2 1 C2.99 1 3.98 1 5 1 C5.66 1.33 6.32 1.66 7 2 C7 2.66 7 3.32 7 4 C4.36 4.33 1.72 4.66 -1 5 C-1 4.34 -1 3.68 -1 3 C-1.66 2.67 -2.32 2.34 -3 2 C-2.01 1.34 -1.02 0.68 0 0 Z " fill="#DF9CE6" transform="translate(667,411)"/>
<path d="M0 0 C1.33617352 0.97528737 2.6688751 1.95533319 4 2.9375 C4.7425 3.48277344 5.485 4.02804687 6.25 4.58984375 C6.8275 5.05519531 7.405 5.52054687 8 6 C8 6.33 8 6.66 8 7 C4.28400809 7.20086443 3.22791555 7.1519437 0 5 C-0.1875 2.375 -0.1875 2.375 0 0 Z " fill="#EDDFE9" transform="translate(585,336)"/>
<path d="M0 0 C2.52588702 2.36292656 3.88820837 3.66462511 5 7 C3.35 7.66 1.7 8.32 0 9 C0 6.03 0 3.06 0 0 Z " fill="#EAE1EA" transform="translate(588,486)"/>
<path d="M0 0 C1.98 0.66 3.96 1.32 6 2 C6 4.31 6 6.62 6 9 C3.59927045 6.11912454 1.52708963 3.43595166 0 0 Z " fill="#140A21" transform="translate(712,439)"/>
<path d="M0 0 C2.97 0.495 2.97 0.495 6 1 C6.33 2.98 6.66 4.96 7 7 C5.83040013 6.02433888 4.66438823 5.044375 3.5 4.0625 C2.8503125 3.51722656 2.200625 2.97195313 1.53125 2.41015625 C1.0259375 1.94480469 0.520625 1.47945313 0 1 C0 0.67 0 0.34 0 0 Z " fill="#1B0D35" transform="translate(705,432)"/>
<path d="M0 0 C2.14210449 1.76956458 2.96060573 2.87575652 3.8125 5.5625 C3.874375 6.366875 3.93625 7.17125 4 8 C3.34 8.66 2.68 9.32 2 10 C0.39644899 6.49223216 -0.22036864 3.85645121 0 0 Z " fill="#22162A" transform="translate(568,370)"/>
<path d="M0 0 C0.33 0 0.66 0 1 0 C1 1.65 1 3.3 1 5 C0.34 5 -0.32 5 -1 5 C-1.33 5.99 -1.66 6.98 -2 8 C-3.5 6.6875 -3.5 6.6875 -5 5 C-5 4.01 -5 3.02 -5 2 C-3.68 2.33 -2.36 2.66 -1 3 C-0.67 2.01 -0.34 1.02 0 0 Z " fill="#070137" transform="translate(613,359)"/>
<path d="M0 0 C-0.66 1.32 -1.32 2.64 -2 4 C-5.37462715 3.45276317 -7.08235 2.9451 -10 1 C-6.78548731 -0.60725635 -3.56387464 -0.05748185 0 0 Z " fill="#171118" transform="translate(583,328)"/>
<path d="M0 0 C1.32 0.66 2.64 1.32 4 2 C3.34 3.65 2.68 5.3 2 7 C1.67 6.34 1.34 5.68 1 5 C0.34 5 -0.32 5 -1 5 C-1.33 4.01 -1.66 3.02 -2 2 C-1.34 2 -0.68 2 0 2 C0 1.34 0 0.68 0 0 Z " fill="#1B1228" transform="translate(588,481)"/>
<path d="M0 0 C2.96404505 2.80804268 5.44499019 5.18315774 7 9 C6.34 9 5.68 9 5 9 C5 8.34 5 7.68 5 7 C2.525 6.01 2.525 6.01 0 5 C0 3.35 0 1.7 0 0 Z " fill="#DFD2DF" transform="translate(577,472)"/>
<path d="M0 0 C0.33 0.99 0.66 1.98 1 3 C0.34 3 -0.32 3 -1 3 C-1 4.65 -1 6.3 -1 8 C-2.32 8.33 -3.64 8.66 -5 9 C-4.34 6.69 -3.68 4.38 -3 2 C-2.01 2 -1.02 2 0 2 C0 1.34 0 0.68 0 0 Z " fill="#040032" transform="translate(613,424)"/>
<path d="M0 0 C4.875 3.625 4.875 3.625 6 7 C4.68 7.33 3.36 7.66 2 8 C0 2.25 0 2.25 0 0 Z " fill="#0C0226" transform="translate(592,328)"/>
<path d="M0 0 C2 1 2 1 3.1875 4.3125 C3.94638329 7.75666263 3.98666245 8.83008446 3 12 C2.30314502 10.3789897 1.61777139 8.75303934 0.9375 7.125 C0.55464844 6.22007812 0.17179688 5.31515625 -0.22265625 4.3828125 C-1 2 -1 2 0 0 Z " fill="#0C0418" transform="translate(681,460)"/>
<path d="M0 0 C0.99 0.33 1.98 0.66 3 1 C4.04561999 4.13685998 4 6.72365939 4 10 C3.01 9.67 2.02 9.34 1 9 C0.67 6.03 0.34 3.06 0 0 Z " fill="#050133" transform="translate(572,453)"/>
<path d="M0 0 C2.5 2.3125 2.5 2.3125 5 5 C5 5.99 5 6.98 5 8 C4.01 8 3.02 8 2 8 C0.74335022 5.09399739 0 3.20395416 0 0 Z " fill="#D6A5E3" transform="translate(709,437)"/>
<path d="M0 0 C0.66 0 1.32 0 2 0 C2 1.65 2 3.3 2 5 C0.02 5.99 -1.96 6.98 -4 8 C-2.87548273 5.0280615 -1.77706209 2.66559313 0 0 Z " fill="#C985E4" transform="translate(615,427)"/>
<path d="M0 0 C1.98 0.66 3.96 1.32 6 2 C6 2.66 6 3.32 6 4 C7.32 4.33 8.64 4.66 10 5 C9.01 6.485 9.01 6.485 8 8 C6.66372225 6.85760183 5.33104612 5.71098945 4 4.5625 C3.2575 3.92441406 2.515 3.28632813 1.75 2.62890625 C1.1725 2.09136719 0.595 1.55382812 0 1 C0 0.67 0 0.34 0 0 Z " fill="#AB76DA" transform="translate(593,328)"/>
<path d="M0 0 C2.31 0 4.62 0 7 0 C7 0.66 7 1.32 7 2 C7.99 2.33 8.98 2.66 10 3 C9.01 3.66 8.02 4.32 7 5 C4.37098712 3.47793991 2.15634036 2.15634036 0 0 Z " fill="#CD9BF9" transform="translate(590,326)"/>
<path d="M0 0 C0.66 0.33 1.32 0.66 2 1 C2.33333333 2.33333333 2.66666667 3.66666667 3 5 C3.66 5.33 4.32 5.66 5 6 C4.67 6.99 4.34 7.98 4 9 C1.4375 6.75 1.4375 6.75 -1 4 C-0.8125 1.6875 -0.8125 1.6875 0 0 Z " fill="#EEEAED" transform="translate(539,475)"/>
<path d="M0 0 C0.66 0.33 1.32 0.66 2 1 C2 2.65 2 4.3 2 6 C1.01 6 0.02 6 -1 6 C-1.33 4.35 -1.66 2.7 -2 1 C-1.34 0.67 -0.68 0.34 0 0 Z " fill="#3C0C3B" transform="translate(569,454)"/>
<path d="M0 0 C0 1.98 0 3.96 0 6 C-1.32 6.33 -2.64 6.66 -4 7 C-3.625 4.0625 -3.625 4.0625 -3 1 C-1 0 -1 0 0 0 Z " fill="#23072F" transform="translate(603,428)"/>
<path d="M0 0 C0.33 0 0.66 0 1 0 C1.12375 0.804375 1.2475 1.60875 1.375 2.4375 C1.58125 3.283125 1.7875 4.12875 2 5 C2.66 5.33 3.32 5.66 4 6 C4 6.66 4 7.32 4 8 C4.99 8.33 5.98 8.66 7 9 C5.02 9 3.04 9 1 9 C-0.4783226 6.04335481 -0.06032783 3.25770263 0 0 Z " fill="#010116" transform="translate(616,403)"/>
<path d="M0 0 C1.65 0 3.3 0 5 0 C5 0.66 5 1.32 5 2 C5.99 2.33 6.98 2.66 8 3 C7.01 3.66 6.02 4.32 5 5 C3.35 3.35 1.7 1.7 0 0 Z " fill="#371C42" transform="translate(587,337)"/>
<path d="M0 0 C0.66 0.33 1.32 0.66 2 1 C2 1.66 2 2.32 2 3 C2.66 3.33 3.32 3.66 4 4 C3.01 4.66 2.02 5.32 1 6 C0.01 5.67 -0.98 5.34 -2 5 C-1.125 1.125 -1.125 1.125 0 0 Z " fill="#010120" transform="translate(630,528)"/>
<path d="M0 0 C1.9451 2.91765 2.45276317 4.62537285 3 8 C2.01 7.67 1.02 7.34 0 7 C-1.1875 4.4375 -1.1875 4.4375 -2 2 C-1.34 1.34 -0.68 0.68 0 0 Z " fill="#E89CF4" transform="translate(680,369)"/>
<path d="M0 0 C1.65 0 3.3 0 5 0 C4.505 0.391875 4.01 0.78375 3.5 1.1875 C1.54406857 3.55091715 1.75792027 5.01435003 2 8 C1.34 8 0.68 8 0 8 C0 5.36 0 2.72 0 0 Z " fill="#070019" transform="translate(491,360)"/>
<path d="M0 0 C1.65 1.65 3.3 3.3 5 5 C4.01 5.495 4.01 5.495 3 6 C0.9375 5.25 0.9375 5.25 -1 4 C-1.33 3.01 -1.66 2.02 -2 1 C-1.34 0.67 -0.68 0.34 0 0 Z " fill="#2C1355" transform="translate(633,527)"/>
<path d="M0 0 C0.66 0 1.32 0 2 0 C2.93065133 2.60582371 3.14917407 3.64198224 2.0625 6.25 C1.5365625 7.11625 1.5365625 7.11625 1 8 C1 7.01 1 6.02 1 5 C0.34 5 -0.32 5 -1 5 C-0.67 3.35 -0.34 1.7 0 0 Z " fill="#181235" transform="translate(570,400)"/>
<path d="M0 0 C1.98 0.495 1.98 0.495 4 1 C2.25 4.875 2.25 4.875 0 6 C-1.125 2.25 -1.125 2.25 0 0 Z " fill="#EFECF1" transform="translate(571,369)"/>
<path d="M0 0 C1.32 0.33 2.64 0.66 4 1 C3.67 2.32 3.34 3.64 3 5 C0.525 4.01 0.525 4.01 -2 3 C-1.34 2.67 -0.68 2.34 0 2 C0 1.34 0 0.68 0 0 Z " fill="#250956" transform="translate(609,348)"/>
<path d="M0 0 C7.75 -0.125 7.75 -0.125 10 1 C10 1.66 10 2.32 10 3 C6.28111761 2.49287967 3.26545761 1.88391785 0 0 Z " fill="#FACBFD" transform="translate(666,326)"/>
<path d="M0 0 C1.65 0 3.3 0 5 0 C4.67 1.65 4.34 3.3 4 5 C3.34 5 2.68 5 2 5 C1.34 3.35 0.68 1.7 0 0 Z " fill="#BD8DEA" transform="translate(619,507)"/>
<path d="M0 0 C0.66 0 1.32 0 2 0 C3.6875 1.75 3.6875 1.75 5 4 C4.6875 6.25 4.6875 6.25 4 8 C3.34 7.67 2.68 7.34 2 7 C2 5.68 2 4.36 2 3 C1.34 2.67 0.68 2.34 0 2 C0 1.34 0 0.68 0 0 Z " fill="#02001E" transform="translate(597,491)"/>
<path d="M0 0 C2.7839183 1.39195915 2.97898997 3.15575779 4 6 C3.01 6.33 2.02 6.66 1 7 C-0.0625 4.625 -0.0625 4.625 -1 2 C-0.67 1.34 -0.34 0.68 0 0 Z " fill="#21083E" transform="translate(571,458)"/>
<path d="M0 0 C0.99 0 1.98 0 3 0 C3.33 2.64 3.66 5.28 4 8 C0 3.375 0 3.375 0 0 Z " fill="#F2A5F6" transform="translate(714,451)"/>
<path d="M0 0 C0.66 0.33 1.32 0.66 2 1 C2 1.99 2 2.98 2 4 C-0.375 4.625 -0.375 4.625 -3 5 C-3.66 4.34 -4.32 3.68 -5 3 C-2.625 1.4375 -2.625 1.4375 0 0 Z " fill="#1B1522" transform="translate(581,447)"/>
<path d="M0 0 C0.66 0.33 1.32 0.66 2 1 C0.6875 3 0.6875 3 -1 5 C-1.99 5 -2.98 5 -4 5 C-3.6875 3.0625 -3.6875 3.0625 -3 1 C-2.01 0.67 -1.02 0.34 0 0 Z " fill="#090029" transform="translate(606,434)"/>
<path d="M0 0 C1.32 0.33 2.64 0.66 4 1 C4.33 2.32 4.66 3.64 5 5 C4.01 5 3.02 5 2 5 C1.34 3.35 0.68 1.7 0 0 Z " fill="#F0EFF2" transform="translate(499,424)"/>
<path d="M0 0 C2.31 0.33 4.62 0.66 7 1 C3.375 4 3.375 4 0 4 C0 2.68 0 1.36 0 0 Z " fill="#F7C4FC" transform="translate(620,415)"/>
<path d="M0 0 C0.99 0.33 1.98 0.66 3 1 C0.6875 3.0625 0.6875 3.0625 -2 5 C-2.99 4.67 -3.98 4.34 -5 4 C-2.6875 1.9375 -2.6875 1.9375 0 0 Z " fill="#EEC1F7" transform="translate(672,409)"/>
<path d="M0 0 C0.99 0.33 1.98 0.66 3 1 C3 2.98 3 4.96 3 7 C2.01 7 1.02 7 0 7 C0 4.69 0 2.38 0 0 Z " fill="#FAAEFE" transform="translate(714,393)"/>
<path d="M0 0 C1.98 0.99 1.98 0.99 4 2 C4 3.65 4 5.3 4 7 C1 5 1 5 0.3125 2.375 C0.209375 1.59125 0.10625 0.8075 0 0 Z " fill="#190D2D" transform="translate(673,367)"/>
<path d="M0 0 C0.66 0 1.32 0 2 0 C3.06775224 1.96466413 4.06553465 3.96855359 5 6 C4.67 6.66 4.34 7.32 4 8 C2.35 5.69 0.7 3.38 -1 1 C-0.67 0.67 -0.34 0.34 0 0 Z " fill="#DA8CF0" transform="translate(605,337)"/>
</svg>
